<svg width="102" height="60" viewBox="0 0 102 60" fill="none" xmlns="http://www.w3.org/2000/svg">
<path fill-rule="evenodd" clip-rule="evenodd" d="M50.3974 5.93452H50.2608C50.0509 5.92181 49.8409 5.91672 49.631 5.91163H49.6309H49.6107H49.1756C48.7784 5.91163 48.3737 5.92181 47.9714 5.94215C47.9411 5.93994 47.9107 5.93994 47.8804 5.94215C44.2361 6.14863 40.6655 7.05951 37.3643 8.62492L36.9317 8.83344V30.9746L37.9436 30.6313C38.8315 30.3261 39.7777 30.0515 40.7567 29.7972C43.4032 29.1178 46.1206 28.7567 48.8518 28.7216V31.6306C48.49 31.6332 48.1384 31.6434 47.7868 31.6612H47.7033C45.6013 31.7765 43.5155 32.0967 41.4751 32.6173C38.891 33.2643 36.3981 34.2357 34.0554 35.5086V7.11189C36.4885 5.69275 39.1091 4.62687 41.8394 3.94596C44.2365 3.32705 46.7007 3.00931 49.1756 3H49.6031C50.1141 3.01271 50.6125 3.0356 51.0805 3.0712C52.3135 3.15778 53.5367 3.35263 54.7359 3.65353V6.51685C53.5712 6.24551 52.387 6.06695 51.1943 5.98284C51.1701 5.98079 51.1459 5.97872 51.1217 5.97666C50.8749 5.95561 50.6278 5.93452 50.3974 5.93452ZM55.4366 8.86138C56.0716 8.9097 56.7293 8.93259 57.3946 8.93259C59.9963 8.92307 62.587 8.59083 65.1077 7.94339C67.6906 7.29396 70.1824 6.32178 72.5249 5.04956V32.9402C70.0905 34.3585 67.4691 35.4243 64.7384 36.1061C62.3409 36.7227 59.8769 37.0395 57.4022 37.0496C55.5271 37.0647 53.6575 36.8443 51.8368 36.3935V8.32229C52.2668 8.42146 52.7095 8.51301 53.1598 8.58929C53.8985 8.7139 54.6777 8.80544 55.4366 8.86138ZM69.6309 9.07753L68.619 9.41828C67.688 9.73106 66.7495 10.0108 65.8059 10.26C63.0587 10.966 60.2352 11.3281 57.3997 11.3382C56.7394 11.3382 56.1323 11.3204 55.5454 11.2822L54.7384 11.2288V31.3178V34.0057L55.4315 34.0667C56.0741 34.1227 56.7369 34.1506 57.4047 34.1506C59.6382 34.1412 61.862 33.8533 64.025 33.2937C65.8062 32.8469 67.539 32.2243 69.1983 31.4348L69.6309 31.2263V9.07753Z" fill="#AFB1B8"/>
<path d="M36.0209 45.2124C35.8755 45.0615 35.7001 44.943 35.5062 44.8646C35.3123 44.7862 35.1041 44.7496 34.8952 44.7572C34.6726 44.7542 34.4516 44.7957 34.2451 44.8793C34.0557 44.9547 33.8836 45.068 33.7391 45.2124C33.5963 45.3572 33.4851 45.5304 33.4128 45.721C33.3335 45.9207 33.294 46.1341 33.2964 46.3491V50.1431C33.2874 50.4104 33.3384 50.6764 33.4457 50.9212C33.5352 51.1156 33.6645 51.2889 33.8251 51.4298C33.9768 51.5575 34.1548 51.6495 34.3463 51.6994C34.5308 51.7512 34.7214 51.7777 34.9129 51.7782C35.1242 51.7803 35.3333 51.7351 35.5251 51.646C35.7148 51.563 35.8866 51.4438 36.0311 51.295C36.172 51.1476 36.2843 50.9752 36.3625 50.7864C36.4435 50.5951 36.4849 50.3892 36.4839 50.1812V49.7566H35.4922V50.0948C35.4952 50.2103 35.4754 50.3252 35.4341 50.433C35.4018 50.5137 35.3526 50.5866 35.2899 50.6466C35.2284 50.6962 35.158 50.7334 35.0824 50.7559C35.0155 50.7782 34.9455 50.7902 34.875 50.7915C34.7864 50.8018 34.6968 50.7885 34.615 50.7527C34.5333 50.717 34.4624 50.6602 34.4095 50.5881C34.316 50.4356 34.2702 50.2585 34.278 50.0795V46.5423C34.2718 46.3462 34.3135 46.1515 34.3994 45.9753C34.4509 45.8952 34.5237 45.8313 34.6096 45.7908C34.6955 45.7503 34.7909 45.7349 34.8851 45.7464C34.9706 45.7434 35.0555 45.7612 35.1326 45.7984C35.2097 45.8356 35.2767 45.8911 35.3278 45.96C35.4388 46.1057 35.4968 46.2852 35.4922 46.4686V46.7966H36.4738V46.4101C36.4758 46.1831 36.4345 45.9578 36.3523 45.7464C36.2791 45.5476 36.1663 45.3659 36.0209 45.2124Z" fill="#AFB1B8"/>
<path d="M41.9127 45.1691C41.5965 44.9021 41.1974 44.7546 40.7845 44.7521C40.5825 44.7529 40.3822 44.7891 40.1925 44.8589C39.9999 44.9279 39.8222 45.0332 39.6689 45.1691C39.5046 45.3168 39.3735 45.498 39.2843 45.7006C39.1844 45.9323 39.1353 46.183 39.1402 46.4355V50.0744C39.1333 50.3304 39.1825 50.5847 39.2843 50.8195C39.3741 51.0151 39.5053 51.1887 39.6689 51.328C39.8205 51.4688 39.9985 51.5777 40.1925 51.6485C40.3822 51.7183 40.5825 51.7544 40.7845 51.7553C40.9865 51.7549 41.1869 51.7187 41.3764 51.6485C41.5738 51.5767 41.7558 51.468 41.9127 51.328C42.0709 51.1861 42.1984 51.013 42.2871 50.8195C42.3889 50.5847 42.4382 50.3304 42.4313 50.0744V46.4355C42.4362 46.183 42.387 45.9323 42.2871 45.7006C42.1989 45.5001 42.0716 45.3194 41.9127 45.1691ZM41.4498 50.0744C41.4581 50.1714 41.4448 50.269 41.4106 50.3601C41.3765 50.4512 41.3224 50.5334 41.2525 50.6008C41.1215 50.7106 40.9563 50.7708 40.7857 50.7708C40.6152 50.7708 40.45 50.7106 40.319 50.6008C40.2491 50.5334 40.195 50.4512 40.1609 50.3601C40.1267 50.269 40.1133 50.1714 40.1217 50.0744V46.4355C40.1133 46.3385 40.1267 46.2409 40.1609 46.1498C40.195 46.0587 40.2491 45.9764 40.319 45.9091C40.45 45.7993 40.6152 45.7391 40.7857 45.7391C40.9563 45.7391 41.1215 45.7993 41.2525 45.9091C41.3224 45.9764 41.3765 46.0587 41.4106 46.1498C41.4448 46.2409 41.4581 46.3385 41.4498 46.4355V50.0744Z" fill="#AFB1B8"/>
<path d="M49.6511 51.6994V44.8107H48.6974L47.4452 48.4572H47.4275L46.1651 44.8107H45.2216V51.6994H46.2056V47.5087H46.2233L47.1872 50.4712H47.6779L48.6493 47.5087H48.667V51.6994H49.6511Z" fill="#AFB1B8"/>
<path d="M55.2419 45.2937C55.0904 45.1237 54.8991 44.9943 54.6853 44.9173C54.455 44.8424 54.214 44.8063 53.9719 44.8105H52.5098V51.6993H53.4913V49.0089H53.9972C54.3035 49.0228 54.6082 48.958 54.8826 48.8207C55.1058 48.6968 55.2919 48.515 55.4215 48.2943C55.535 48.1111 55.6115 47.9071 55.6466 47.6942C55.6853 47.435 55.703 47.173 55.6997 46.911C55.7093 46.5802 55.677 46.2495 55.6036 45.9269C55.5381 45.6885 55.4137 45.4706 55.2419 45.2937ZM54.7359 47.3941C54.7317 47.5188 54.7006 47.6412 54.6449 47.7527C54.5888 47.8586 54.5 47.9434 54.3919 47.9942C54.2465 48.0593 54.0879 48.0889 53.9289 48.0807H53.4812V45.7387H53.9871C54.1395 45.7312 54.2913 45.7609 54.4298 45.8251C54.5313 45.8834 54.6119 45.9724 54.66 46.0794C54.7137 46.2004 54.7429 46.331 54.746 46.4634C54.746 46.6084 54.746 46.7609 54.746 46.9211C54.746 47.0813 54.7562 47.2466 54.746 47.3941H54.7359Z" fill="#AFB1B8"/>
<path d="M59.8915 44.8107H59.087L57.5692 51.6994H58.5507L58.8391 50.2194H60.1774L60.4657 51.6994H61.4473L59.8915 44.8107ZM58.9859 49.2811L59.469 46.784H59.4867L59.9674 49.2811H58.9859Z" fill="#AFB1B8"/>
<path d="M66.2335 48.9607H66.2158L64.7334 44.8107H63.7898V51.6994H64.7713V47.557H64.7916L66.2917 51.6994H67.215V44.8107H66.2335V48.9607Z" fill="#AFB1B8"/>
<path d="M72.2314 44.8107L71.4421 47.5494H71.4219L70.6326 44.8107H69.5929L70.9412 48.7878V51.6994H71.9228V48.7878L73.2711 44.8107H72.2314Z" fill="#AFB1B8"/>
<path d="M33.2838 53.6445H33.7569V54.9719H34.0781V53.6445H34.5487V53.3724H33.2838V53.6445Z" fill="#AFB1B8"/>
<path d="M37.2605 53.3724L36.6407 54.9719H36.9823L37.1138 54.6083H37.7513L37.8879 54.9719H38.237L37.602 53.3724H37.2605ZM37.2099 54.3387L37.4275 53.7462L37.645 54.3387H37.2099Z" fill="#AFB1B8"/>
<path d="M41.1917 54.3821H41.5611V54.5881C41.4532 54.6746 41.3196 54.722 41.1816 54.7229C41.1171 54.7265 41.0527 54.7145 40.9937 54.688C40.9347 54.6614 40.8829 54.6211 40.8426 54.5703C40.7578 54.4485 40.716 54.3017 40.7237 54.1533C40.7237 53.7973 40.8781 53.6193 41.1842 53.6193C41.2647 53.6112 41.3455 53.6325 41.4119 53.6791C41.4782 53.7257 41.5258 53.7947 41.5459 53.8735L41.8621 53.8125C41.7938 53.4997 41.5687 53.3421 41.1842 53.3421C40.9785 53.3366 40.7785 53.4103 40.6251 53.5481C40.5445 53.6276 40.4822 53.7239 40.4424 53.8302C40.4026 53.9365 40.3864 54.0502 40.3949 54.1634C40.3856 54.3823 40.4587 54.5966 40.5998 54.7636C40.6782 54.8444 40.773 54.9071 40.8778 54.9475C40.9826 54.9879 41.0949 55.0049 41.2069 54.9975C41.4572 55.0045 41.7003 54.9133 41.8849 54.7432V54.1126H41.1917V54.3821Z" fill="#AFB1B8"/>
<path d="M45.2064 53.3724H44.8826V54.9719H46.0032V54.6998H45.2064V53.3724Z" fill="#AFB1B8"/>
<path d="M48.6013 53.3724H48.2775V54.9719H48.6013V53.3724Z" fill="#AFB1B8"/>
<path d="M51.9203 54.4405L51.2651 53.3724H50.9514V54.9719H51.2525V53.9268L51.895 54.9719H52.2163V53.3724H51.9203V54.4405Z" fill="#AFB1B8"/>
<path d="M54.9206 54.2675H55.7175V53.9954H54.9206V53.6445H55.7782V53.3724H54.5968V54.9719H55.8111V54.6998H54.9206V54.2675Z" fill="#AFB1B8"/>
<path d="M62.1961 54.0031H61.5661V53.3724H61.2449V54.9719H61.5661V54.2726H62.1961V54.9719H62.5173V53.3724H62.1961V54.0031Z" fill="#AFB1B8"/>
<path d="M65.214 54.2675H66.0134V53.9954H65.214V53.6445H66.0741V53.3724H64.8927V54.9719H66.1044V54.6998H65.214V54.2675Z" fill="#AFB1B8"/>
<path d="M69.3071 54.2676C69.5853 54.2244 69.727 54.0769 69.727 53.8226C69.7351 53.7546 69.7248 53.6856 69.6972 53.623C69.6696 53.5603 69.6257 53.5063 69.5702 53.4666C69.4253 53.3938 69.2637 53.3614 69.1022 53.3725H68.4242V54.972H68.7455V54.3032H68.8087C68.8772 54.299 68.9457 54.3112 69.0086 54.3388C69.0555 54.3678 69.0946 54.4079 69.1224 54.4558L69.4715 54.9644H69.856L69.6612 54.6516C69.5751 54.4972 69.4537 54.3656 69.3071 54.2676ZM68.9833 54.0464H68.7455V53.6446H68.9984C69.1087 53.6357 69.2195 53.6486 69.3248 53.6827C69.3482 53.7034 69.3666 53.7291 69.3788 53.7579C69.391 53.7867 69.3965 53.8179 69.3951 53.8492C69.3936 53.8804 69.3852 53.911 69.3704 53.9385C69.3556 53.966 69.3348 53.9899 69.3096 54.0082C69.204 54.0406 69.0934 54.0535 68.9833 54.0464Z" fill="#AFB1B8"/>
<path d="M72.3934 54.2675H73.1902V53.9954H72.3934V53.6445H73.2535V53.3724H72.0696V54.9719H73.2838V54.6998H72.3934V54.2675Z" fill="#AFB1B8"/>
</svg>
