<svg width="103" height="60" viewBox="0 0 103 60" fill="none" xmlns="http://www.w3.org/2000/svg">
<path d="M54.2044 27.4082C53.7614 26.8184 53.5494 26.1213 53.5997 25.4196V22.5364C53.5997 21.6526 53.8002 20.9809 54.201 20.5214C54.6019 20.0619 55.2904 19.8331 56.2666 19.8351C57.1838 19.8351 57.835 20.0306 58.22 20.4217C58.64 20.9207 58.8443 21.5309 58.7975 22.1463V22.8239H57.1567V22.1375C57.1625 21.9129 57.1466 21.6882 57.1091 21.4659C57.0855 21.3138 57.0029 21.1732 56.8747 21.067C56.7062 20.9525 56.4939 20.897 56.2802 20.9115C56.0554 20.897 55.8324 20.9556 55.6551 21.0758C55.5122 21.1935 55.4169 21.3477 55.3833 21.5157C55.3362 21.7511 55.3146 21.9897 55.3187 22.2285V25.7276C55.2929 26.0652 55.3653 26.403 55.5294 26.7102C55.611 26.8141 55.7243 26.8965 55.8568 26.9483C55.9893 27.0001 56.1359 27.0192 56.2802 27.0035C56.4904 27.0184 56.699 26.9615 56.8611 26.8451C56.9948 26.7305 57.0808 26.581 57.1057 26.4198C57.144 26.1877 57.1611 25.9533 57.1567 25.7188V25.009H58.7975V25.6572C58.8436 26.2988 58.6442 26.9356 58.2302 27.4698C57.8531 27.8981 57.211 28.1122 56.2666 28.1122C55.3221 28.1122 54.6087 27.8834 54.2044 27.4082Z" fill="#AFB1B8"/>
<path d="M61.0364 27.4376C60.6219 26.9888 60.4147 26.3347 60.4147 25.4695V22.4367C60.4147 21.5803 60.6219 20.9321 61.0364 20.4921C61.4508 20.0521 62.1438 19.8331 63.1154 19.8351C64.0802 19.8351 64.7699 20.0541 65.1843 20.4921C65.5988 20.9321 65.8094 21.5803 65.8094 22.4367V25.4695C65.8094 26.3259 65.5988 26.9829 65.1775 27.4346C64.7563 27.8863 64.07 28.1122 63.1154 28.1122C62.1608 28.1122 61.4542 27.8834 61.0364 27.4376ZM63.8798 26.7102C64.0282 26.4291 64.0958 26.1212 64.0768 25.8127V22.0994C64.0959 21.7969 64.0294 21.4949 63.8832 21.2195C63.8 21.1134 63.6838 21.0296 63.5481 20.9777C63.4123 20.9259 63.2624 20.908 63.1154 20.9262C62.968 20.9085 62.8178 20.9265 62.6816 20.9783C62.5454 21.0301 62.4286 21.1136 62.3443 21.2195C62.1949 21.4941 62.1271 21.7965 62.1472 22.0994V25.8303C62.1266 26.1389 62.1943 26.4471 62.3443 26.7278C62.4399 26.8224 62.5579 26.8982 62.6904 26.9502C62.8228 27.0021 62.9666 27.029 63.112 27.029C63.2575 27.029 63.4013 27.0021 63.5337 26.9502C63.6661 26.8982 63.7841 26.8224 63.8798 26.7278V26.7102Z" fill="#AFB1B8"/>
<path d="M67.783 19.9236H69.5496L70.8779 25.5192L72.2368 19.9236H73.9558L74.1291 28.0003H72.8585L72.7226 22.3871L71.4113 28.0003H70.3921L69.0332 22.3665L68.9075 28.0003H67.6234L67.783 19.9236Z" fill="#AFB1B8"/>
<path d="M76.1097 19.9236H78.8614C80.4467 19.9236 81.2394 20.688 81.2394 22.217C81.2394 23.6814 80.4049 24.4126 78.7357 24.4106H77.7981V28.0003H76.0995L76.1097 19.9236ZM78.4605 23.3754C78.6284 23.3938 78.7988 23.3805 78.9601 23.3364C79.1214 23.2924 79.2697 23.2186 79.3948 23.1203C79.5895 22.8475 79.6755 22.5271 79.6394 22.2082C79.6482 21.9618 79.6208 21.7154 79.5578 21.475C79.5336 21.3947 79.4911 21.3194 79.4327 21.2534C79.3744 21.1874 79.3014 21.1322 79.2181 21.0908C78.9823 20.9932 78.7216 20.9488 78.4605 20.9618H77.8015V23.3754H78.4605Z" fill="#AFB1B8"/>
<path d="M83.6889 19.9236H85.5132L87.385 28.0003H85.8019L85.4316 26.138H83.8044L83.4239 28.0003H81.817L83.6889 19.9236ZM85.2482 25.2025L84.6129 21.8123L83.9777 25.2025H85.2482Z" fill="#AFB1B8"/>
<path d="M88.8968 19.9236H90.0858L92.3619 24.5309V19.9236H93.7718V28.0003H92.6405L90.3508 23.1906V28.0003H88.8934L88.8968 19.9236Z" fill="#AFB1B8"/>
<path d="M97.0739 24.9208L95.1817 19.9349H96.775L97.93 23.1376L99.0137 19.9349H100.573L98.7046 24.9208V28.0003H97.0739V24.9208Z" fill="#AFB1B8"/>
<path d="M56.8272 31.5316V31.954H55.4411V35.2359H54.8602V31.954H53.4673V31.5316H56.8272Z" fill="#AFB1B8"/>
<path d="M61.1722 35.2362H60.7237C60.6782 35.2386 60.6332 35.2261 60.598 35.201C60.5641 35.1795 60.5381 35.15 60.5233 35.116L60.1224 34.2361H58.1996L57.7987 35.116C57.7873 35.1528 57.7664 35.1868 57.7375 35.2157C57.702 35.2402 57.6573 35.2527 57.6118 35.2509H57.1634L58.862 31.5468H59.4531L61.1722 35.2362ZM58.3592 33.8607H59.9627L59.2833 32.3533C59.2332 32.2393 59.1912 32.1227 59.1576 32.0043C59.1338 32.0747 59.1134 32.1421 59.093 32.2008L59.0319 32.3562L58.3592 33.8607Z" fill="#AFB1B8"/>
<path d="M64.1006 34.8724C64.207 34.8772 64.3135 34.8772 64.4199 34.8724C64.5118 34.8642 64.6027 34.8495 64.6917 34.8284C64.7749 34.8107 64.8567 34.7882 64.9363 34.7609C65.011 34.7345 65.0858 34.7022 65.1639 34.67V33.8369H64.4845C64.4677 33.8378 64.4508 33.8356 64.4351 33.8305C64.4193 33.8255 64.4049 33.8177 64.3927 33.8076C64.3816 33.7993 64.3728 33.7889 64.3669 33.7772C64.361 33.7655 64.3582 33.7529 64.3588 33.7401V33.4556H65.6769V34.8753C65.5693 34.9417 65.4557 35.0006 65.3372 35.0513C65.216 35.1029 65.0898 35.1451 64.9601 35.1774C64.8211 35.2127 64.6791 35.2382 64.5354 35.2537C64.3707 35.2695 64.2051 35.2773 64.0394 35.2771C63.7464 35.2793 63.4557 35.2325 63.1833 35.1393C62.929 35.051 62.6979 34.9193 62.5039 34.7521C62.3148 34.5832 62.1659 34.3839 62.0656 34.1655C61.9586 33.9199 61.9056 33.6593 61.9094 33.397C61.9058 33.133 61.9576 32.8706 62.0622 32.6226C62.16 32.4031 62.3092 32.2033 62.5005 32.036C62.6943 31.8693 62.9255 31.7386 63.1799 31.6517C63.4708 31.5572 63.7796 31.5105 64.0904 31.5138C64.2485 31.5137 64.4065 31.5245 64.5626 31.5461C64.7007 31.5655 64.8361 31.597 64.9669 31.64C65.0857 31.6785 65.1996 31.7277 65.3066 31.7866C65.4107 31.8445 65.5095 31.9092 65.6022 31.9802L65.4391 32.209C65.4263 32.2299 65.4073 32.2475 65.384 32.2598C65.3607 32.2722 65.334 32.279 65.3066 32.2794C65.269 32.2784 65.2325 32.2682 65.2013 32.2501C65.1503 32.2266 65.096 32.1973 65.0348 32.1621C64.9626 32.123 64.8864 32.0896 64.8072 32.0624C64.7059 32.0273 64.6014 31.9998 64.4947 31.9802C64.3524 31.9576 64.2079 31.9468 64.0632 31.948C63.8391 31.9458 63.6165 31.9807 63.4075 32.0506C63.2185 32.1161 63.0481 32.2162 62.9082 32.3439C62.7674 32.4771 62.6598 32.6339 62.5922 32.8045C62.4404 33.2056 62.4404 33.6381 62.5922 34.0393C62.6666 34.2135 62.7823 34.3724 62.9319 34.5057C63.0713 34.6328 63.2403 34.7328 63.4279 34.799C63.6439 34.8631 63.8729 34.888 64.1006 34.8724Z" fill="#AFB1B8"/>
<path d="M69.5157 34.8136H71.3706V35.2359H68.9484V31.5316H69.5293L69.5157 34.8136Z" fill="#AFB1B8"/>
<path d="M73.3003 35.2359H72.7193V31.5316H73.3003V35.2359Z" fill="#AFB1B8"/>
<path d="M75.4609 31.5492C75.4954 31.5662 75.5255 31.5892 75.5492 31.6167L78.0325 34.409C78.0291 34.3651 78.0291 34.321 78.0325 34.277C78.0325 34.236 78.0325 34.1949 78.0325 34.1568V31.517H78.5387V35.2362H78.2465C78.2033 35.2392 78.1598 35.2321 78.1208 35.2156C78.0856 35.1972 78.0545 35.1733 78.0291 35.1452L75.5492 32.3558C75.5492 32.3998 75.5492 32.4409 75.5492 32.482C75.5492 32.523 75.5492 32.5612 75.5492 32.5964V35.2362H75.0634V31.5316H75.3658C75.3985 31.5317 75.4309 31.5377 75.4609 31.5492Z" fill="#AFB1B8"/>
<path d="M82.8158 31.5316V31.9393H80.7571V33.1624H82.4252V33.5554H80.7571V34.8195H82.8158V35.2272H80.1592V31.5316H82.8158Z" fill="#AFB1B8"/>
<path d="M21.9412 8.65551L47.7363 14.9788V37.1368L21.9412 30.8164V8.65551ZM20.2868 6.76672V31.8928L49.3873 39.0285V13.9054L20.2868 6.76672Z" fill="#AFB1B8"/>
<path d="M35.8834 50.6922L6.77948 43.5505V18.4271L35.8834 25.5659V50.6922Z" fill="#AFB1B8"/>
<path d="M20.7692 8.37099L46.2279 14.615L35.401 23.9649L9.93888 17.7179L20.7692 8.37099ZM20.2868 6.76672L6.77948 18.4277L35.8834 25.5662L49.3873 13.9053L20.2868 6.76672Z" fill="#AFB1B8"/>
<path d="M37.5209 49.2788L49.3873 39.0315L37.5209 36.1193V49.2788Z" fill="#AFB1B8"/>
</svg>
