<svg width="103" height="60" viewBox="0 0 103 60" fill="none" xmlns="http://www.w3.org/2000/svg">
<path d="M37.3139 49.1014C37.3298 49.1018 37.3455 49.1049 37.36 49.1106C37.3745 49.1163 37.3876 49.1245 37.3985 49.1346L37.6166 49.3431C37.4473 49.5118 37.238 49.6468 37.0031 49.7388C36.728 49.8391 36.4316 49.8875 36.1334 49.8809C35.8531 49.8859 35.5747 49.8408 35.3154 49.7482C35.0815 49.6632 34.8714 49.5356 34.6992 49.3739C34.5235 49.2062 34.3882 49.0096 34.3012 48.7958C34.2059 48.5574 34.1588 48.3065 34.1621 48.0542C34.1583 47.8003 34.2091 47.548 34.3121 47.3103C34.4073 47.0951 34.551 46.8986 34.7347 46.7322C34.9209 46.5691 35.1436 46.4408 35.389 46.3555C35.6576 46.265 35.9435 46.22 36.2315 46.2228C36.499 46.2172 36.7651 46.2582 37.014 46.3436C37.23 46.425 37.4282 46.538 37.6002 46.6777L37.4175 46.9004C37.4049 46.9161 37.3892 46.9297 37.3712 46.9407C37.3496 46.9535 37.3236 46.9594 37.2976 46.9573C37.2693 46.9556 37.242 46.9474 37.2185 46.9336L37.1204 46.8743L36.984 46.7985C36.9252 46.7704 36.8641 46.7458 36.8014 46.7251C36.7205 46.6999 36.6375 46.6801 36.5532 46.6659C36.4463 46.6487 36.3376 46.6408 36.2288 46.6422C36.0214 46.6399 35.8156 46.6737 35.6235 46.7417C35.4444 46.8046 35.2827 46.8999 35.1491 47.0212C35.0132 47.1503 34.9084 47.3018 34.841 47.4667C34.7642 47.6553 34.7264 47.8542 34.7292 48.0542C34.726 48.2574 34.7638 48.4595 34.841 48.6513C34.9076 48.8147 35.0104 48.9653 35.1437 49.0943C35.2685 49.2146 35.4233 49.3086 35.5963 49.3692C35.7742 49.4333 35.9653 49.4655 36.1579 49.4639C36.2692 49.4654 36.3804 49.4591 36.4905 49.445C36.6703 49.4259 36.8428 49.3716 36.9949 49.2862C37.0712 49.2425 37.1433 49.1934 37.2103 49.1393C37.2384 49.1161 37.2752 49.1026 37.3139 49.1014Z" fill="#AFB1B8"/>
<path d="M43.612 48.0538C43.6154 48.3052 43.5655 48.5549 43.4648 48.7906C43.3759 49.0043 43.236 49.1993 43.0541 49.3626C42.8722 49.526 42.6526 49.654 42.4097 49.7382C41.8759 49.9151 41.2858 49.9151 40.752 49.7382C40.5106 49.6527 40.2924 49.5244 40.1113 49.3615C39.9295 49.1952 39.7885 48.9986 39.6969 48.7835C39.5005 48.3063 39.5005 47.7847 39.6969 47.3076C39.7899 47.0923 39.9307 46.8951 40.1113 46.7271C40.294 46.5694 40.5121 46.446 40.752 46.3647C41.2851 46.1846 41.8765 46.1846 42.4097 46.3647C42.6519 46.4502 42.871 46.5784 43.0531 46.7414C43.2326 46.906 43.3726 47.1001 43.4648 47.3123C43.5658 47.5495 43.6157 47.8009 43.612 48.0538ZM43.0395 48.0538C43.0438 47.8527 43.0087 47.6525 42.9359 47.4615C42.8748 47.298 42.7755 47.1472 42.6441 47.0185C42.5163 46.8968 42.3589 46.8013 42.1834 46.739C41.7955 46.6095 41.3662 46.6095 40.9783 46.739C40.8027 46.8013 40.6454 46.8968 40.5175 47.0185C40.3844 47.1464 40.284 47.2974 40.2231 47.4615C40.0843 47.8472 40.0843 48.2604 40.2231 48.6461C40.2846 48.81 40.3849 48.9609 40.5175 49.0891C40.6455 49.2101 40.8029 49.3048 40.9783 49.3663C41.3668 49.4925 41.7948 49.4925 42.1834 49.3663C42.3587 49.3048 42.5162 49.2101 42.6441 49.0891C42.7749 48.9601 42.8741 48.8094 42.9359 48.6461C43.009 48.4552 43.0441 48.2549 43.0395 48.0538Z" fill="#AFB1B8"/>
<path d="M47.909 48.6747L47.9662 48.8074C47.988 48.76 48.0071 48.7173 48.0289 48.6747C48.0497 48.6302 48.0734 48.5867 48.0998 48.5444L49.493 46.3438C49.5203 46.3059 49.5448 46.2823 49.5721 46.2751C49.6092 46.2653 49.6479 46.2613 49.6866 46.2633H50.0983V49.8425H49.6103V47.2108C49.6103 47.1776 49.6103 47.1397 49.6103 47.0995C49.6076 47.0585 49.6076 47.0173 49.6103 46.9763L48.2089 49.2077C48.1911 49.2411 48.1626 49.2694 48.1268 49.2891C48.0911 49.3089 48.0495 49.3192 48.0071 49.319H47.9281C47.8856 49.3195 47.8439 49.3093 47.8081 49.2895C47.7722 49.2697 47.7438 49.2413 47.7263 49.2077L46.284 46.9621C46.284 47.0047 46.284 47.0474 46.284 47.09C46.284 47.1326 46.284 47.1705 46.284 47.2037V49.8354H45.8123V46.2633H46.224C46.2627 46.2613 46.3015 46.2653 46.3385 46.2751C46.3723 46.2897 46.3993 46.314 46.4149 46.3438L47.8381 48.5468C47.866 48.5875 47.8898 48.6303 47.909 48.6747Z" fill="#AFB1B8"/>
<path d="M53.152 48.4969V49.8376H52.6067V46.2632H53.8227C54.0522 46.2594 54.2811 46.2857 54.5016 46.3413C54.6781 46.3848 54.8417 46.4607 54.9814 46.564C55.1025 46.6608 55.1959 46.7808 55.2541 46.9146C55.3185 47.0604 55.3499 47.2156 55.3468 47.3717C55.3492 47.5285 55.3149 47.684 55.2459 47.8289C55.1804 47.966 55.0796 48.0884 54.9515 48.1866C54.8116 48.2941 54.6471 48.3749 54.4689 48.4234C54.2566 48.4824 54.0346 48.5104 53.8118 48.5063L53.152 48.4969ZM53.152 48.1131H53.8118C53.9551 48.1148 54.0978 48.0964 54.2344 48.0587C54.3471 48.0257 54.4509 47.9733 54.5398 47.9047C54.6217 47.8391 54.6851 47.7581 54.7252 47.6678C54.7698 47.5723 54.792 47.4701 54.7906 47.367C54.7969 47.2676 54.7783 47.1683 54.7359 47.0758C54.6935 46.9834 54.6284 46.9 54.5452 46.8317C54.3369 46.6904 54.0753 46.6219 53.8118 46.6398H53.152V48.1131Z" fill="#AFB1B8"/>
<path d="M60.4807 49.8424H60.05C60.0067 49.8438 59.9643 49.8321 59.93 49.8092C59.8991 49.7869 59.8747 49.7585 59.8591 49.7263L59.4883 48.8616H57.6261L57.2417 49.7263C57.2276 49.7579 57.204 49.7857 57.1735 49.8069C57.1389 49.8311 57.0953 49.8437 57.0508 49.8424H56.6201L58.2559 46.2628H58.823L60.4807 49.8424ZM57.7815 48.5134H59.3193L58.6704 47.0564C58.6208 46.9468 58.5798 46.8344 58.5477 46.72L58.485 46.9072C58.4659 46.964 58.4441 47.0162 58.425 47.0588L57.7815 48.5134Z" fill="#AFB1B8"/>
<path d="M62.8364 46.2795C62.869 46.295 62.897 46.3169 62.9182 46.3434L65.3039 49.0417C65.3039 48.9991 65.3039 48.9564 65.3039 48.9161C65.3039 48.8759 65.3039 48.8356 65.3039 48.7977V46.2629H65.7919V49.8424H65.5193C65.4806 49.8434 65.4422 49.8361 65.4075 49.8211C65.3738 49.804 65.3442 49.7815 65.3202 49.7548L62.9373 47.0589C62.94 47.0999 62.94 47.141 62.9373 47.1821C62.9373 47.2223 62.9373 47.2579 62.9373 47.291V49.8424H62.4493V46.2629H62.7383C62.772 46.2621 62.8055 46.2677 62.8364 46.2795Z" fill="#AFB1B8"/>
<path d="M69.8107 48.4188V49.8402H69.2654V48.4188L67.7577 46.2631H68.2457C68.2878 46.2609 68.3293 46.2718 68.363 46.2938C68.3926 46.3168 68.4176 46.3441 68.4366 46.3744L69.38 47.765C69.4181 47.8242 69.4508 47.8787 69.4781 47.9308C69.5054 47.9829 69.5272 48.0327 69.5463 48.0824L69.6172 47.9284C69.6436 47.8721 69.6746 47.8175 69.7099 47.765L70.6396 46.3649C70.6591 46.337 70.683 46.3115 70.7105 46.2891C70.7428 46.2646 70.7848 46.2518 70.8277 46.2536H71.3212L69.8107 48.4188Z" fill="#AFB1B8"/>
<path d="M47.639 40.2561C47.8762 40.2822 48.1162 40.3035 48.3588 40.3225C52.0377 38.8926 55.1498 36.5523 57.3063 33.5942C59.4628 30.636 60.5679 27.1912 60.4835 23.6904L56.4292 20.1678C57.2536 23.8951 56.8679 27.7482 55.3155 31.2959C53.7631 34.8437 51.1052 37.9461 47.639 40.2561Z" fill="#AFB1B8"/>
<path d="M46.1913 40.0923L46.3004 40.1112C50.0043 37.8094 52.8282 34.5951 54.4069 30.8839C55.9856 27.1727 56.2466 23.1353 55.156 19.2939L49.3813 14.2767C51.717 18.4008 52.6572 23.0162 52.0925 27.5862C51.5278 32.1562 49.4814 36.493 46.1913 40.0923Z" fill="#AFB1B8"/>
<path d="M65.7756 27.8265C64.7945 31.6731 62.4118 35.1423 58.9812 37.7189C57.9793 38.4755 56.8986 39.1496 55.7531 39.7324C58.5465 39.019 61.1141 37.7578 63.2579 36.046C65.4016 34.3341 67.0643 32.2174 68.1176 29.859L65.7756 27.8265Z" fill="#AFB1B8"/>
<path d="M64.8568 27.2601L61.5223 24.3629C61.4585 27.666 60.3777 30.894 58.3922 33.7114C56.4068 36.5287 53.589 38.8327 50.2319 40.3837H50.2483C50.9964 40.3835 51.7439 40.3447 52.4867 40.2676C55.6241 39.155 58.3957 37.3849 60.5541 35.1152C62.7126 32.8455 64.1908 30.1469 64.8568 27.2601Z" fill="#AFB1B8"/>
<path d="M46.6739 12.1609L42.696 8.69995C39.1399 9.89391 36.0815 11.9928 33.921 14.722C31.7606 17.4512 30.5988 20.6835 30.5877 23.9959V23.9959C30.601 27.656 32.0189 31.2077 34.6169 34.0888C37.215 36.9699 40.8447 39.016 44.9317 39.903C48.5802 36.041 50.7162 31.2687 51.0295 26.2798C51.3428 21.2908 49.8171 16.3449 46.6739 12.1609Z" fill="#AFB1B8"/>
<path d="M74.0477 26.7273C74.0333 22.3848 72.0415 18.2238 68.5073 15.1532C64.9732 12.0826 60.184 10.352 55.186 10.3395C52.8764 10.3374 50.5865 10.7077 48.4325 11.4315L72.7881 32.5926C73.622 30.7221 74.0491 28.7333 74.0477 26.7273Z" fill="#AFB1B8"/>
</svg>
