<svg width="102" height="60" viewBox="0 0 102 60" fill="none" xmlns="http://www.w3.org/2000/svg">
<path d="M26.9125 44.7352C27.1562 45.0114 27.286 45.3572 27.2792 45.7122C27.2916 45.9437 27.247 46.1749 27.1486 46.3885C27.0503 46.6021 26.9007 46.7927 26.711 46.9463C26.2376 47.2736 25.6511 47.4336 25.0593 47.3969H22.1556V41.2055H24.9998C25.5612 41.1713 26.1182 41.3167 26.5755 41.6168C26.7592 41.7576 26.9047 41.9355 27.0004 42.1365C27.0961 42.3376 27.1395 42.5562 27.1272 42.7753C27.1439 43.1168 27.0267 43.4526 26.7969 43.722C26.5762 43.968 26.2712 44.1385 25.9314 44.2059C26.3166 44.2703 26.6643 44.4579 26.9125 44.7352ZM23.5067 43.8006H24.7223C24.9986 43.8193 25.273 43.7463 25.4953 43.5949C25.5866 43.5192 25.6576 43.4252 25.7029 43.3203C25.7481 43.2154 25.7664 43.1024 25.7563 42.99C25.7649 42.878 25.7462 42.7657 25.7016 42.661C25.6571 42.5564 25.5878 42.4622 25.4986 42.3851C25.2697 42.2294 24.9867 42.1553 24.7025 42.1764H23.5067V43.8006ZM25.6142 46.175C25.7118 46.0974 25.7885 46.0003 25.8384 45.8912C25.8882 45.7821 25.9099 45.6639 25.9016 45.5458C25.9091 45.4264 25.8864 45.307 25.8355 45.1969C25.7845 45.0868 25.7065 44.9888 25.6076 44.9107C25.3698 44.7492 25.0773 44.6699 24.7818 44.6868H23.5067V46.3897H24.7983C25.089 46.4051 25.3768 46.3293 25.6142 46.175Z" fill="#AFB1B8"/>
<path d="M32.7265 47.3969L31.1442 44.9772H30.5495V47.3969H29.1885V41.2055H31.7652C32.4147 41.164 33.0568 41.3524 33.5589 41.7318C33.9191 42.0678 34.1364 42.5106 34.1715 42.9803C34.2066 43.45 34.0573 43.9158 33.7505 44.2937C33.4327 44.6271 32.9984 44.8494 32.5217 44.9228L34.2064 47.3969H32.7265ZM30.5495 44.1333H31.6628C32.4358 44.1333 32.8223 43.8208 32.8223 43.1957C32.8302 43.0681 32.809 42.9403 32.7601 42.8205C32.7112 42.7008 32.6356 42.5916 32.5382 42.5C32.2939 42.314 31.9793 42.2238 31.6628 42.249H30.5363L30.5495 44.1333Z" fill="#AFB1B8"/>
<path d="M40.1658 46.1506H37.4537L36.9747 47.3968H35.5476L38.0384 41.2749H39.5811L42.0619 47.3968H40.6348L40.1658 46.1506ZM39.8024 45.213L38.8114 42.5997L37.8203 45.213H39.8024Z" fill="#AFB1B8"/>
<path d="M49.478 47.3969H48.1269L45.0977 43.1866V47.3969H43.7499V41.2054H45.0977L48.1269 45.44V41.2054H49.478V47.3969Z" fill="#AFB1B8"/>
<path d="M57.1882 45.9149C56.9088 46.3823 56.4832 46.7626 55.9659 47.0068C55.3778 47.2788 54.7251 47.4128 54.0664 47.397H51.6616V41.2055H54.0664C54.724 41.1898 55.3758 41.3206 55.9659 41.5866C56.4831 41.8253 56.9092 42.2017 57.1882 42.6664C57.4663 43.17 57.6112 43.7263 57.6112 44.2906C57.6112 44.8549 57.4663 45.4113 57.1882 45.9149ZM55.6422 45.7667C56.0278 45.3554 56.2398 44.8312 56.2398 44.2891C56.2398 43.7471 56.0278 43.2229 55.6422 42.8116C55.1761 42.439 54.5683 42.2499 53.9508 42.2853H53.0127V46.293H53.9508C54.5683 46.3283 55.1761 46.1392 55.6422 45.7667Z" fill="#AFB1B8"/>
<path d="M41.0114 6.76672C41.0114 6.76672 58.4501 12.7949 58.0801 21.518V36.2722C58.0801 36.2722 40.6546 30.2411 41.018 21.518L41.0114 6.76672Z" fill="#AFB1B8"/>
<path d="M73.6159 32.8181C76.9094 30.7428 80.7189 29.4574 84.6955 29.0796V24.4609C80.1135 26.0779 76.2264 29.0098 73.6159 32.8181Z" fill="#AFB1B8"/>
<path d="M71.6372 34.2095C74.3329 29.2396 79.0061 25.4046 84.6956 23.4932V10.1847C84.6956 10.1847 59.8606 18.7717 60.3858 31.1939V52.2001C60.3858 52.2001 61.4925 51.816 63.2334 51.0961C63.2334 50.4247 63.2334 49.7472 63.3127 49.0666C63.8266 43.2996 66.821 37.9556 71.6372 34.2095Z" fill="#AFB1B8"/>
<path d="M69.2753 42.0131C69.4058 40.5563 69.6968 39.1152 70.1441 37.712C67.1451 40.9471 65.329 44.9614 64.9511 49.1906C64.9148 49.5899 64.895 49.9891 64.8851 50.4005C66.2956 49.7804 67.9374 49.0061 69.6618 48.0957C69.2217 46.0948 69.0916 44.0472 69.2753 42.0131Z" fill="#AFB1B8"/>
<path d="M70.263 42.0887C70.0977 43.929 70.201 45.7813 70.5702 47.5966C77.3554 43.8793 84.9797 38.1355 84.6857 31.1939V30.589C79.8379 31.0856 75.3024 33.026 71.776 36.112C70.9503 38.0244 70.4404 40.0387 70.263 42.0887Z" fill="#AFB1B8"/>
</svg>
