<svg width="103" height="60" viewBox="0 0 103 60" fill="none" xmlns="http://www.w3.org/2000/svg">
<path d="M24.6778 21.1028H24.6749C22.2769 21.1028 20.3329 22.8304 20.3329 24.9615V24.964C20.3329 27.0951 22.2769 28.8227 24.6749 28.8227H24.6778C27.0758 28.8227 29.0198 27.0951 29.0198 24.964V24.9615C29.0198 22.8304 27.0758 21.1028 24.6778 21.1028Z" fill="#2196F3"/>
<path d="M56.7266 19.8693C56.7198 16.9093 55.3939 14.0722 53.039 11.979C50.6841 9.88568 47.492 8.70667 44.1613 8.69995V8.69995C40.8297 8.70533 37.6361 9.88374 35.28 11.9772C32.9239 14.0706 31.5971 16.9084 31.5903 19.8693V36.1921C31.5903 36.1921 56.7238 33.7044 56.7266 19.8718V19.8693Z" fill="#2196F3"/>
<path d="M11.5316 41.5495C11.5377 43.6091 12.4608 45.5828 14.0992 47.0394C15.7377 48.496 17.9583 49.317 20.2758 49.3231C22.5928 49.317 24.813 48.4963 26.4514 47.0403C28.0897 45.5843 29.0132 43.6112 29.02 41.552V30.1943C29.02 30.1943 11.5316 31.9266 11.5316 41.5495ZM20.2758 43.5844C19.8229 43.5844 19.3802 43.4651 19.0037 43.2415C18.6271 43.0179 18.3336 42.7001 18.1603 42.3282C17.987 41.9564 17.9416 41.5472 18.03 41.1525C18.1183 40.7577 18.3364 40.3951 18.6567 40.1105C18.9769 39.8259 19.3849 39.6321 19.8291 39.5536C20.2733 39.4751 20.7337 39.5154 21.1521 39.6694C21.5705 39.8234 21.9281 40.0843 22.1797 40.4189C22.4313 40.7535 22.5656 41.147 22.5656 41.5495C22.5667 41.8173 22.5083 42.0828 22.3938 42.3306C22.2792 42.5783 22.1107 42.8036 21.898 42.9933C21.6852 43.1831 21.4324 43.3337 21.1541 43.4364C20.8757 43.5392 20.5772 43.5921 20.2758 43.5921V43.5844Z" fill="#2196F3"/>
<path d="M37.9493 42.4637H36.2618V44.2069H35.3829V39.9413H38.1602V40.6532H36.2618V41.7548H37.9493V42.4637ZM42.1739 42.1708C42.1739 42.5907 42.0997 42.9589 41.9512 43.2753C41.8028 43.5917 41.5899 43.8358 41.3126 44.0077C41.0372 44.1796 40.7208 44.2655 40.3633 44.2655C40.0098 44.2655 39.6944 44.1805 39.4171 44.0106C39.1397 43.8407 38.9249 43.5985 38.7725 43.2841C38.6202 42.9677 38.543 42.6044 38.5411 42.1942V41.9833C38.5411 41.5634 38.6163 41.1942 38.7667 40.8759C38.919 40.5555 39.1329 40.3104 39.4083 40.1405C39.6856 39.9686 40.002 39.8827 40.3575 39.8827C40.713 39.8827 41.0284 39.9686 41.3038 40.1405C41.5811 40.3104 41.795 40.5555 41.9454 40.8759C42.0977 41.1942 42.1739 41.5624 42.1739 41.9803V42.1708ZM41.2833 41.9774C41.2833 41.5302 41.2032 41.1903 41.043 40.9579C40.8829 40.7255 40.6544 40.6093 40.3575 40.6093C40.0626 40.6093 39.835 40.7245 39.6749 40.955C39.5147 41.1835 39.4337 41.5194 39.4317 41.9628V42.1708C39.4317 42.6063 39.5118 42.9442 39.6719 43.1844C39.8321 43.4247 40.0626 43.5448 40.3633 43.5448C40.6583 43.5448 40.8848 43.4296 41.043 43.1991C41.2012 42.9667 41.2813 42.6288 41.2833 42.1854V41.9774ZM45.0245 43.0878C45.0245 42.9218 44.9659 42.7948 44.8487 42.7069C44.7315 42.6171 44.5206 42.5233 44.2159 42.4257C43.9112 42.326 43.67 42.2284 43.4922 42.1327C43.0079 41.871 42.7657 41.5184 42.7657 41.0751C42.7657 40.8446 42.8301 40.6395 42.959 40.4598C43.0899 40.2782 43.2764 40.1366 43.5186 40.035C43.7628 39.9335 44.0362 39.8827 44.3389 39.8827C44.6436 39.8827 44.9151 39.9384 45.1534 40.0497C45.3917 40.1591 45.5762 40.3143 45.7071 40.5155C45.8399 40.7167 45.9063 40.9452 45.9063 41.201H45.0274C45.0274 41.0057 44.9659 40.8544 44.8428 40.7469C44.7198 40.6376 44.5469 40.5829 44.3243 40.5829C44.1094 40.5829 43.9424 40.6288 43.8233 40.7206C43.7042 40.8104 43.6446 40.9296 43.6446 41.078C43.6446 41.2167 43.7139 41.3329 43.8526 41.4266C43.9932 41.5204 44.1993 41.6083 44.4708 41.6903C44.9708 41.8407 45.335 42.0272 45.5635 42.2499C45.7921 42.4725 45.9063 42.7499 45.9063 43.0819C45.9063 43.451 45.7667 43.7411 45.4874 43.952C45.2081 44.161 44.8321 44.2655 44.3594 44.2655C44.0313 44.2655 43.7325 44.2059 43.463 44.0868C43.1934 43.9657 42.9874 43.8007 42.8448 43.5917C42.7042 43.3827 42.6339 43.1405 42.6339 42.8651H43.5157C43.5157 43.3358 43.7969 43.5712 44.3594 43.5712C44.5684 43.5712 44.7315 43.5292 44.8487 43.4452C44.9659 43.3593 45.0245 43.2401 45.0245 43.0878ZM49.7149 40.6532H48.4083V44.2069H47.5294V40.6532H46.2403V39.9413H49.7149V40.6532ZM52.7852 42.3583H51.0977V43.5009H53.0782V44.2069H50.2188V39.9413H53.0723V40.6532H51.0977V41.6698H52.7852V42.3583ZM55.1729 42.6454H54.4727V44.2069H53.5938V39.9413H55.1788C55.6827 39.9413 56.0714 40.0536 56.3448 40.2782C56.6182 40.5028 56.7549 40.8202 56.7549 41.2303C56.7549 41.5214 56.6915 41.7645 56.5645 41.9598C56.4395 42.1532 56.2491 42.3075 55.9932 42.4227L56.9161 44.1659V44.2069H55.9727L55.1729 42.6454ZM54.4727 41.9335H55.1817C55.4024 41.9335 55.5733 41.8778 55.6944 41.7665C55.8155 41.6532 55.876 41.4979 55.876 41.3007C55.876 41.0995 55.8184 40.9413 55.7032 40.826C55.5899 40.7108 55.4151 40.6532 55.1788 40.6532H54.4727V41.9335ZM59.7989 42.704V44.2069H58.92V39.9413H60.584C60.9044 39.9413 61.1856 39.9999 61.4278 40.1171C61.6719 40.2343 61.8594 40.4012 61.9903 40.618C62.1212 40.8329 62.1866 41.078 62.1866 41.3534C62.1866 41.7714 62.043 42.1014 61.7559 42.3436C61.4708 42.5839 61.0753 42.704 60.5694 42.704H59.7989ZM59.7989 41.9921H60.584C60.8165 41.9921 60.9932 41.9374 61.1143 41.828C61.2374 41.7186 61.2989 41.5624 61.2989 41.3593C61.2989 41.1503 61.2374 40.9813 61.1143 40.8524C60.9913 40.7235 60.8214 40.6571 60.6046 40.6532H59.7989V41.9921ZM65.3594 42.3583H63.6719V43.5009H65.6524V44.2069H62.793V39.9413H65.6465V40.6532H63.6719V41.6698H65.3594V42.3583ZM69.4376 40.6532H68.1309V44.2069H67.252V40.6532H65.963V39.9413H69.4376V40.6532ZM72.5079 42.3583H70.8204V43.5009H72.8008V44.2069H69.9415V39.9413H72.795V40.6532H70.8204V41.6698H72.5079V42.3583ZM74.8956 42.6454H74.1954V44.2069H73.3165V39.9413H74.9014C75.4053 39.9413 75.794 40.0536 76.0674 40.2782C76.3409 40.5028 76.4776 40.8202 76.4776 41.2303C76.4776 41.5214 76.4141 41.7645 76.2872 41.9598C76.1622 42.1532 75.9717 42.3075 75.7159 42.4227L76.6387 44.1659V44.2069H75.6954L74.8956 42.6454ZM74.1954 41.9335H74.9044C75.1251 41.9335 75.296 41.8778 75.4171 41.7665C75.5381 41.6532 75.5987 41.4979 75.5987 41.3007C75.5987 41.0995 75.5411 40.9413 75.4258 40.826C75.3126 40.7108 75.1378 40.6532 74.9014 40.6532H74.1954V41.9335ZM79.3604 43.0878C79.3604 42.9218 79.3018 42.7948 79.1846 42.7069C79.0674 42.6171 78.8565 42.5233 78.5518 42.4257C78.2471 42.326 78.0059 42.2284 77.8282 42.1327C77.3438 41.871 77.1016 41.5184 77.1016 41.0751C77.1016 40.8446 77.1661 40.6395 77.295 40.4598C77.4258 40.2782 77.6124 40.1366 77.8546 40.035C78.0987 39.9335 78.3721 39.8827 78.6749 39.8827C78.9796 39.8827 79.251 39.9384 79.4893 40.0497C79.7276 40.1591 79.9122 40.3143 80.043 40.5155C80.1758 40.7167 80.2422 40.9452 80.2422 41.201H79.3633C79.3633 41.0057 79.3018 40.8544 79.1788 40.7469C79.0557 40.6376 78.8829 40.5829 78.6602 40.5829C78.4454 40.5829 78.2784 40.6288 78.1592 40.7206C78.0401 40.8104 77.9805 40.9296 77.9805 41.078C77.9805 41.2167 78.0499 41.3329 78.1885 41.4266C78.3292 41.5204 78.5352 41.6083 78.8067 41.6903C79.3067 41.8407 79.671 42.0272 79.8995 42.2499C80.128 42.4725 80.2422 42.7499 80.2422 43.0819C80.2422 43.451 80.1026 43.7411 79.8233 43.952C79.544 44.161 79.168 44.2655 78.6954 44.2655C78.3672 44.2655 78.0684 44.2059 77.7989 44.0868C77.5294 43.9657 77.3233 43.8007 77.1807 43.5917C77.0401 43.3827 76.9698 43.1405 76.9698 42.8651H77.8516C77.8516 43.3358 78.1329 43.5712 78.6954 43.5712C78.9044 43.5712 79.0674 43.5292 79.1846 43.4452C79.3018 43.3593 79.3604 43.2401 79.3604 43.0878Z" fill="#2196F3"/>
</svg>
