<svg width="103" height="60" viewBox="0 0 103 60" fill="none" xmlns="http://www.w3.org/2000/svg">
<path fill-rule="evenodd" clip-rule="evenodd" d="M38.6598 7L45.6676 13.6341L32.6598 13.6265V45.8137H66.6598V33.507L73.6598 40.1338V7H38.6598ZM66.3522 32.7283L46.4824 13.918H66.3522V32.7283ZM60.1829 41.1055H38.0399V19.4579H39.6051V39.6397H60.1829V41.1055ZM43.2687 50.0991L42.4508 51.7837L41.6329 50.0991H40.9469L42.1407 52.3452V53.6538H42.7609V52.3452L43.9523 50.0991H43.2687ZM44.2965 53.6538L44.5846 52.8262H45.9615L46.2521 53.6538H46.8966L45.5514 50.0991H44.9972L43.6544 53.6538H44.2965ZM45.2731 50.8535L45.7882 52.3281H44.7579L45.2731 50.8535ZM48.5299 52.2427C48.4404 52.3794 48.3956 52.5299 48.3956 52.6943C48.3956 52.9938 48.5006 53.2371 48.7106 53.4243C48.9222 53.6099 49.2037 53.7026 49.5553 53.7026C49.9069 53.7026 50.2096 53.6074 50.4635 53.417L50.6637 53.6538H51.3522L50.8297 53.0361C51.0348 52.7562 51.1373 52.3973 51.1373 51.9595H50.6222C50.6222 52.1987 50.5725 52.416 50.4733 52.6113L49.7872 51.8008L50.0289 51.625C50.1998 51.5013 50.3227 51.3776 50.3976 51.2539C50.4725 51.1286 50.5099 50.9919 50.5099 50.8438C50.5099 50.6191 50.4269 50.4312 50.2609 50.2798C50.0965 50.1268 49.8849 50.0503 49.6261 50.0503C49.3396 50.0503 49.1118 50.1317 48.9425 50.2944C48.7732 50.4556 48.6886 50.6753 48.6886 50.9536C48.6886 51.0675 48.7155 51.1855 48.7692 51.3076C48.8245 51.4297 48.9213 51.5778 49.0597 51.752C48.796 51.9408 48.6194 52.1043 48.5299 52.2427ZM50.1339 53.0288C49.9598 53.1623 49.7726 53.229 49.5724 53.229C49.395 53.229 49.2534 53.1777 49.1476 53.0752C49.0418 52.9727 48.9889 52.8392 48.9889 52.6748C48.9889 52.4844 49.0865 52.3151 49.2819 52.167L49.3575 52.1133L50.1339 53.0288ZM49.4967 51.4541C49.3291 51.2474 49.2452 51.0757 49.2452 50.939C49.2452 50.8201 49.2794 50.7217 49.3478 50.6436C49.4161 50.5654 49.5081 50.5264 49.6237 50.5264C49.7311 50.5264 49.8198 50.5597 49.8898 50.6265C49.9598 50.6916 49.9948 50.7705 49.9948 50.8633C49.9948 51.0033 49.9443 51.118 49.8434 51.2075L49.7677 51.2686L49.4967 51.4541ZM55.2828 53.3853C55.527 53.172 55.667 52.8758 55.7028 52.4966H55.0875C55.055 52.7505 54.9777 52.932 54.8556 53.041C54.7335 53.1501 54.5512 53.2046 54.3087 53.2046C54.0434 53.2046 53.8416 53.1037 53.7032 52.9019C53.5665 52.7 53.4982 52.4071 53.4982 52.0229V51.708C53.5014 51.3288 53.5747 51.0415 53.7179 50.8462C53.8628 50.6493 54.0695 50.5508 54.338 50.5508C54.5691 50.5508 54.7441 50.6077 54.8629 50.7217C54.9834 50.834 55.0582 51.0179 55.0875 51.2734H55.7028C55.6637 50.8844 55.5245 50.5833 55.2853 50.3701C55.046 50.1569 54.7303 50.0503 54.338 50.0503C54.0467 50.0503 53.7895 50.1195 53.5665 50.2578C53.3452 50.3962 53.1751 50.5931 53.0563 50.8486C52.9375 51.1042 52.8781 51.3996 52.8781 51.7349V52.0669C52.8829 52.394 52.944 52.6813 53.0612 52.9287C53.1783 53.1761 53.3444 53.3674 53.5592 53.5024C53.7757 53.6359 54.0255 53.7026 54.3087 53.7026C54.714 53.7026 55.0387 53.5968 55.2828 53.3853ZM58.9132 52.8872C59.0337 52.6235 59.0939 52.3175 59.0939 51.9692V51.7715C59.0922 51.4248 59.0304 51.1213 58.9083 50.8608C58.7863 50.5988 58.6129 50.3986 58.3883 50.2603C58.1653 50.1203 57.909 50.0503 57.6193 50.0503C57.3295 50.0503 57.0724 50.1211 56.8478 50.2627C56.6248 50.4027 56.4515 50.6053 56.3278 50.8706C56.2057 51.1359 56.1447 51.4419 56.1447 51.7886V51.9888C56.1463 52.3289 56.2081 52.6292 56.3302 52.8896C56.4539 53.1501 56.6281 53.3511 56.8527 53.4927C57.0789 53.6326 57.3361 53.7026 57.6241 53.7026C57.9155 53.7026 58.1726 53.6326 58.3956 53.4927C58.6202 53.3511 58.7928 53.1493 58.9132 52.8872ZM58.2516 50.8779C58.4013 51.0879 58.4762 51.3898 58.4762 51.7837V51.9692C58.4762 52.3696 58.4021 52.674 58.254 52.8823C58.1075 53.0907 57.8976 53.1948 57.6241 53.1948C57.354 53.1948 57.1424 53.0882 56.9894 52.875C56.838 52.6618 56.7623 52.3599 56.7623 51.9692V51.7642C56.7656 51.3817 56.8421 51.0863 56.9918 50.8779C57.1432 50.668 57.3523 50.563 57.6193 50.563C57.8927 50.563 58.1035 50.668 58.2516 50.8779Z" fill="#AFB1B8"/>
</svg>
