<svg aria-hidden="true" style="position:absolute;width:0;height:0;overflow:hidden" xmlns="http://www.w3.org/2000/svg"><defs><symbol id="antenna" viewBox="0 0 32 32"><path fill="#212121" style="fill:var(--color1, #212121)" d="m30.773 22.098-8.443-8.505.937-4.616c.225.09.485.144.758.146h.033a2.16 2.16 0 1 0-2.029-1.42l-.005-.015-4.96.606L8.973.161a.53.53 0 0 0-.376-.16.536.536 0 0 0-.373.155L6.712 1.66a.535.535 0 0 0 0 .754l.814.825C6.383 5.301 5.71 7.761 5.71 10.378c0 4.106 1.656 7.824 4.336 10.525l-.001-.001a.49.49 0 0 0 .146.097 2.986 2.986 0 0 0-.052.546v6.188h-6.4a2.669 2.669 0 0 0-2.667 2.666v1.067c0 .295.239.534.534.534H26.14a.534.534 0 0 0 .533-.534v-1.067a2.67 2.67 0 0 0-2.666-2.666h-6.4v-2.742a14.784 14.784 0 0 0 10.166-1.502l-.077.039.818.823a.534.534 0 0 0 .376.16.536.536 0 0 0 .373-.155l1.512-1.504a.535.535 0 0 0 0-.754zM23.28 6.233a1.067 1.067 0 1 1 .752 1.822h-.004a1.066 1.066 0 0 1-.747-1.822h-.002zm-1.256 3.504-.598 2.946-1.175-1.183 1.774-1.763zm-.605-.902-1.92 1.909-1.486-1.493 3.406-.416zM24.004 28.8a1.6 1.6 0 0 1 1.6 1.6v.534H2.138V30.4a1.6 1.6 0 0 1 1.6-1.6h20.267zm-7.466-2.134v1.067h-5.334v-1.067h5.334zM11.204 25.6v-4.053c0-1.294 1.196-2.346 2.667-2.346s2.667 1.053 2.667 2.346V25.6h-5.334zm6.4-1.696v-2.357c0-1.882-1.675-3.413-3.733-3.413h-.058c-1.353 0-2.54.707-3.213 1.771l-.009.016a13.817 13.817 0 0 1-3.812-9.55c0-2.314.567-4.496 1.569-6.414l-.036.077 18.602 18.709c-1.823.947-3.979 1.502-6.266 1.502-1.079 0-2.128-.124-3.136-.357l.093.018zm11.289-.684L7.836 2.039l.754-.752 7.935 7.98c.004 0 .006.007.01.01l13.114 13.191-.757.752z"/><path fill="#2196f3" style="fill:var(--color2, #2196f3)" d="M13.876 20.267h-.007a1.6 1.6 0 0 0-.003 3.2h.007a1.6 1.6 0 0 0 .002-3.2zm.373 1.978a.534.534 0 1 1-.378-.912.533.533 0 0 1 .374.911h.005z"/></symbol><symbol id="astronaut" viewBox="0 0 32 32"><path fill="#2196f3" style="fill:var(--color2, #2196f3)" d="M31.974 4.524a.535.535 0 0 0-.427-.362h-.003l-1.911-.278-.855-1.731c-.179-.365-.777-.365-.956 0l-.855 1.731-1.911.278a.534.534 0 0 0-.296.91l1.383 1.348-.326 1.903a.532.532 0 0 0 .774.562l1.709-.899 1.709.899a.534.534 0 0 0 .773-.565v.003l-.326-1.903 1.383-1.348a.535.535 0 0 0 .134-.55l.001.004zm-2.463 1.327a.53.53 0 0 0-.153.472l.191 1.114-1-.526a.525.525 0 0 0-.501.001l.003-.001-1 .526.191-1.114a.53.53 0 0 0-.152-.472l-.811-.79 1.119-.162a.532.532 0 0 0 .402-.292l.5-1.013.5 1.013a.532.532 0 0 0 .402.292l1.119.162-.809.79zm-3.377 14.671h-1.067v1.067h1.067v-1.067zm0 2.134h-1.067v1.066h1.067v-1.066zm1.066-1.067h-1.067v1.067H27.2v-1.067zm-2.133 0H24v1.067h1.067v-1.067zm-2.667 4.8h-1.067v1.067H22.4v-1.067zm0 2.134h-1.067v1.067H22.4v-1.067zm1.067-1.067H22.4v1.067h1.067v-1.067zm-2.133 0h-1.067v1.067h1.067v-1.067zM16 24.256h-1.066v1.067H16v-1.067zm0 2.133h-1.066v1.067H16v-1.067zm1.067-1.067H16v1.067h1.067v-1.067zm-2.133 0h-1.067v1.067h1.067v-1.067zm-9.067-19.2H4.801v1.066h1.066V6.122zm0 2.134H4.801v1.066h1.066V8.256zm1.066-1.067H5.866v1.067h1.066V7.189zm-2.133 0H3.733v1.067H4.8V7.189z"/><path fill="#212121" style="fill:var(--color1, #212121)" d="M24.715 14.16a1.776 1.776 0 0 0-1.179-.703l-.009-.001a1.769 1.769 0 0 0-1.344.355l.004-.003-1.253.96-1.898 1.417-1.358-.541c2.421-1.086 4.113-3.508 4.113-6.32 0-3.823-3.122-6.934-6.961-6.934S7.869 5.5 7.869 9.324c0 1.386.415 2.674 1.12 3.759l-2.768-.024c-.009 0-.016.005-.023.005a.511.511 0 0 0-.159.033l.004-.001c-.013.005-.026.007-.038.013-.006.003-.013.003-.019.006l-3.233 1.596-.001.001-1.893.91a.5.5 0 0 0-.065.036l.001-.001a1.782 1.782 0 0 0-.594 2.306l-.005-.01c.22.424.592.742 1.043.885l.013.003a1.772 1.772 0 0 0 1.388-.133l-.009.005 1.388-.738 2.264-1.169 1.357-.008-5.442 5.415-.001.001-1.339 1.333a1.643 1.643 0 0 0-.491 1.173v.005a1.668 1.668 0 0 0 1.667 1.664h.002a1.67 1.67 0 0 0 1.18-.485l1.314-1.309 1.741-1.3.901.897L4.07 27.28a1.643 1.643 0 0 0-.491 1.173v.004a1.662 1.662 0 0 0 1.666 1.664h.003a1.67 1.67 0 0 0 1.18-.485l4.488-4.472c.007-.006.016-.009.022-.016l5.166-5.658 3.471.494a.474.474 0 0 0 .262-.032c.017-.006.032-.015.049-.023.019-.01.039-.015.058-.027l3.213-2.133c.012-.008.018-.021.029-.03.013-.01.029-.014.041-.026l1.271-1.191c.348-.326.564-.787.564-1.3 0-.4-.132-.769-.355-1.066l.003.005zM2.13 17.77a.706.706 0 0 1-.564.05l.005.001a.717.717 0 0 1-.215-1.258l.002-.001 1.314-.632.316.924.133.389-.992.527zm3.497-1.828-1.548.8-.255-.746-.184-.537 2.027-1.001-.04 1.484zm15.1-6.62c0 .918-.219 1.785-.599 2.56l-4.181-1.899a1.865 1.865 0 0 0-.782-1.384l-.006-.004 1.464-4.861c2.377.757 4.104 2.975 4.104 5.588zm-11.789 0c0-3.235 2.644-5.867 5.894-5.867.253 0 .5.022.745.053l-1.432 4.753c-.019 0-.037-.006-.057-.006h-.001a1.872 1.872 0 0 0-1.872 1.867 1.873 1.873 0 0 0 1.872 1.867h.001c.695 0 1.295-.383 1.618-.944l3.863 1.755a5.891 5.891 0 0 1-4.737 2.39c-3.25 0-5.894-2.632-5.894-5.867zm5.957.8c0 .441-.362.8-.806.8h-.001a.804.804 0 0 1-.804-.8c0-.441.361-.8.806-.8s.806.359.806.8zM2.464 25.146a.606.606 0 0 1-.855.001.591.591 0 0 1 0-.844l.962-.959.852.848-.959.954zm3.214 3.734a.606.606 0 0 1-.855.001.591.591 0 0 1 0-.844l.963-.959.852.848-.96.955zm3.482-3.469-.001.001-1.765 1.76-.852-.848 1.765-1.757a.527.527 0 0 0 .09-.136c.007-.014.02-.026.026-.04.016-.041.019-.085.026-.128.003-.025.014-.048.014-.073 0-.035-.013-.07-.02-.105-.006-.032-.006-.064-.019-.096a.536.536 0 0 0-.092-.138c-.01-.012-.014-.026-.025-.038h-.001l-.001-.002-1.607-1.6c-.017-.017-.039-.024-.058-.038a.491.491 0 0 0-.084-.056l-.003-.001a.527.527 0 0 0-.09-.031l-.003-.001a.502.502 0 0 0-.101-.02h-.025a.603.603 0 0 0-.075.005h.003c-.036.005-.069.009-.104.021s-.064.027-.094.045c-.02.011-.043.015-.061.029l-1.774 1.324-.901-.897 2.399-2.386 4.36 4.289-.928.919zm6.819-7.017c-.016-.002-.03.004-.046.003l-.027-.001a.562.562 0 0 0-.092.008h.003a.484.484 0 0 0-.187.07l.002-.001a.492.492 0 0 0-.083.061c-.013.011-.028.016-.04.029l-4.698 5.146-4.328-4.256 2.833-2.818a.535.535 0 0 0-.378-.911h-.002l-2.219.013.028-1.607 3.104.027a6.928 6.928 0 0 0 4.978 2.101h.003c.438 0 .864-.046 1.28-.122.04.032.08.064.129.085l2.41.96.152.758.178.886-3.003-.427zm4.041.178-.313-1.558 1.446-1.08.946 1.257-2.08 1.381zm3.753-2.831-.837.785-.931-1.236.831-.637a.735.735 0 0 1 .543-.143.718.718 0 0 1 .621.71.71.71 0 0 1-.226.521z"/><path fill="#212121" style="fill:var(--color1, #212121)" d="m13.602 18.544-2.143-2.134a.53.53 0 0 0-.752 0l-2.143 2.133a.535.535 0 0 0 0 .756l2.142 2.134a.53.53 0 0 0 .752 0l2.143-2.134a.532.532 0 0 0 0-.756zm-2.519 1.759-1.387-1.381 1.386-1.381 1.387 1.381-1.387 1.381zm6.081-15.232-.258 1.036c.071.018 1.738.452 1.738 2.149h1.067c0-2.017-1.666-2.965-2.547-3.184zm2.547 4.251h-1.067v1.066h1.067V9.322z"/></symbol><symbol id="clock" viewBox="0 0 32 32"><path fill="#212121" style="fill:var(--color1, #212121)" d="M31.296 15.301C31.295 6.849 24.441-.002 15.988 0S.685 6.855.687 15.308c.002 6.788 4.422 12.543 10.541 14.545l.108.031a.667.667 0 0 0 .529-.065.636.636 0 0 0 .283-.357l3.865-12.25a1.913 1.913 0 1 0-.852-3.63l.011-.005-5.106-5.107a.638.638 0 0 0-.902.902l5.103 5.109a1.847 1.847 0 0 0-.191.826c0 .602.283 1.137.723 1.48l.004.003-3.682 11.673C3.843 25.782.117 17.709 2.797 10.431S13.551-.573 20.829 2.108c7.278 2.681 11.004 10.754 8.323 18.032-1.345 3.581-4.003 6.406-7.374 7.938l-.088.036-.398-1.874a.639.639 0 0 0-1.05-.343l.001-.001-3.837 3.426a.637.637 0 0 0 .227 1.083l.005.001 4.899 1.563a.637.637 0 0 0 .818-.744l.001.004-.391-1.839c5.528-2.374 9.329-7.772 9.329-14.057v-.034.002zm-15.304-.637a.638.638 0 0 1 0 1.276.638.638 0 0 1 0-1.276zm2.1 14.864 2.184-1.948.603 2.84-2.787-.892z"/><path fill="#2196f3" style="fill:var(--color2, #2196f3)" d="M15.354 3.185V4.46a.638.638 0 0 0 1.276 0V3.185a.638.638 0 1 0-1.276 0zM3.876 14.664a.638.638 0 0 0 0 1.276h1.275a.638.638 0 0 0 0-1.276H3.876zm24.232 1.275a.638.638 0 0 0 0-1.276h-1.275a.638.638 0 0 0 0 1.276h1.275z"/></symbol><symbol id="close" viewBox="0 0 32 32"><path d="m26.667 7.303-1.97-1.97-7.808 7.808-7.808-7.808-1.97 1.97 7.808 7.808-7.808 7.808 1.97 1.97 7.808-7.808 7.808 7.808 1.97-1.97-7.808-7.808 7.808-7.808z"/></symbol><symbol id="diagram" viewBox="0 0 32 32"><path fill="#2196f3" style="fill:var(--color2, #2196f3)" d="M14.926 14.965h1.066v4.798h-1.066v-4.798zm4.264 2.132h1.066v2.665H19.19v-2.665zm-8.529 1.599h1.066v1.066h-1.066v-1.066zm-3.198-.533h1.066v1.599H7.463v-1.599z"/><path fill="#212121" style="fill:var(--color1, #212121)" d="M1.599 28.291h25.586a1.6 1.6 0 0 0 1.599-1.599V24.56a1.6 1.6 0 0 0-1.599-1.599h-.533V9.667l3.028-2.868a1.608 1.608 0 1 0-.742-.752l-.004-.01-2.281 2.162v-1.23a1.6 1.6 0 0 0-1.599-1.599H3.731a1.6 1.6 0 0 0-1.599 1.599v15.992h-.533A1.6 1.6 0 0 0 0 24.56v2.132a1.6 1.6 0 0 0 1.599 1.599zM30.384 4.837a.533.533 0 0 1 0 1.066.533.533 0 0 1 0-1.066zM3.198 6.969c0-.294.239-.533.533-.533h21.323c.294 0 .533.239.533.533v2.239l-1.066 1.013V8.036a.534.534 0 0 0-.534-.534H4.798a.534.534 0 0 0-.534.533v13.327c0 .294.239.533.534.533h19.189a.534.534 0 0 0 .534-.533v-9.675l1.066-1.01V22.96H3.198V6.969zm4.798 6.93h-.005a1.6 1.6 0 1 0 1.112 2.748l1.853.93a.535.535 0 0 0 .636-.122l3.939-4.432 3.872 2.902a.534.534 0 0 0 .686-.039l3.365-3.188v8.131H5.331V8.568h18.123v2.661l-3.771 3.572-3.904-2.927a.534.534 0 0 0-.718.071v.001l-3.993 4.493-1.493-.746c.011-.064.017-.128.02-.193a1.6 1.6 0 0 0-1.599-1.599zm.533 1.599a.533.533 0 0 1-1.066 0 .533.533 0 0 1 1.066 0zm3.198 8.528h5.33v.533a.533.533 0 0 1-.533.533h-4.265a.533.533 0 0 1-.533-.533v-.533zm-10.66.534c0-.294.238-.533.533-.533h9.062v.533a1.6 1.6 0 0 0 1.599 1.599h4.265a1.6 1.6 0 0 0 1.599-1.599v-.533h9.062c.294 0 .533.239.533.533v2.132a.533.533 0 0 1-.533.533H1.601a.533.533 0 0 1-.533-.533V24.56z"/></symbol><symbol id="email-modal" viewBox="0 0 32 32"><path d="M26.667 5.333H5.334A2.662 2.662 0 0 0 2.682 8l-.014 16c0 1.467 1.2 2.667 2.667 2.667h21.333c1.467 0 2.667-1.2 2.667-2.667V8c0-1.467-1.2-2.667-2.667-2.667zm-.534 5.668-9.426 5.892a1.343 1.343 0 0 1-1.421-.004l.006.003L5.866 11A1.133 1.133 0 1 1 7.07 9.083l-.004-.003 8.933 5.586 8.933-5.588a1.132 1.132 0 1 1 1.204 1.916l-.005.003z"/></symbol><symbol id="envelope" viewBox="0 0 32 32"><path  d="M29 4H3C1.346 4 0 5.346 0 7v18c0 1.654 1.346 3 3 3h26c1.654 0 3-1.346 3-3V7c0-1.654-1.346-3-3-3zm0 2c.136 0 .266.028.384.078L16 17.678 2.616 6.078A.971.971 0 0 1 3 6h26zm0 20H3a1 1 0 0 1-1-1V8.19l13.344 11.566a.997.997 0 0 0 1.313-.001l-.001.001L30 8.19V25a1 1 0 0 1-1 1z"/></symbol><symbol id="facebook" viewBox="0 0 32 32"><path  d="M20.529 5.313h2.921V.225C22.946.156 21.213 0 19.194 0c-4.212 0-7.097 2.649-7.097 7.519V12H7.449v5.688h4.648V32h5.699V17.689h4.46l.708-5.688h-5.169V8.082c.001-1.644.444-2.769 2.735-2.769z"/></symbol><symbol id="group" viewBox="0 0 32 32"><path  d="m12.011 8.854 2.177 2.061-4.041-.002v10H20.71V17.09l2.175 2.059V8.855H12.011zm8.603 7.994-6.173-5.844h6.173v5.844zm-1.916 2.602h-6.879v-6.725h.486v6.27h6.393v.455zm-5.255 2.794-.254.523-.254-.523h-.213l.371.698v.407h.193v-.407l.37-.698h-.212zm.319 1.105.089-.257h.428l.09.257h.2l-.418-1.104h-.172l-.417 1.104h.2zm.303-.87.16.458h-.32l.16-.458zm1.012.431a.29.29 0 0 0 .056.367c.065.058.153.086.262.086s.203-.03.282-.089l.062.074h.214l-.162-.192a.548.548 0 0 0 .096-.334h-.16a.442.442 0 0 1-.046.203l-.213-.252.075-.055c.053-.038.091-.077.115-.115s.035-.081.035-.127c0-.07-.026-.128-.077-.175s-.117-.071-.197-.071c-.089 0-.16.025-.212.076s-.079.118-.079.205c0 .035.008.072.025.11s.047.084.09.138a.662.662 0 0 0-.165.152zm.499.245a.283.283 0 0 1-.174.062c-.055 0-.099-.016-.132-.048s-.049-.073-.049-.124c0-.059.03-.112.091-.158l.024-.017.241.284zm-.198-.49c-.052-.064-.078-.118-.078-.16 0-.037.011-.067.032-.092s.05-.036.086-.036c.033 0 .061.01.083.031s.033.045.033.074a.137.137 0 0 1-.047.107l-.024.019-.084.058zm1.797.6a.403.403 0 0 0 .131-.276h-.191c-.01.079-.034.135-.072.169s-.095.051-.17.051c-.082 0-.145-.031-.188-.094s-.064-.154-.064-.273v-.098c.001-.118.024-.207.068-.268s.109-.092.193-.092c.072 0 .126.018.163.053s.061.092.07.171h.191c-.012-.121-.055-.214-.13-.281s-.172-.099-.294-.099c-.09 0-.17.021-.24.064s-.122.104-.159.184-.055.171-.055.275v.103c.002.102.02.191.057.268s.088.136.155.178a.438.438 0 0 0 .233.062.446.446 0 0 0 .303-.099zm1.128-.154a.687.687 0 0 0 .056-.285v-.061c-.001-.108-.02-.202-.058-.283a.425.425 0 0 0-.401-.252c-.09 0-.17.022-.24.066-.069.044-.123.106-.162.189s-.057.177-.057.285v.062c0 .106.02.199.058.28s.093.143.162.187a.45.45 0 0 0 .24.065c.091 0 .17-.022.24-.065s.123-.107.161-.188zm-.205-.625c.047.065.07.159.07.281v.058c0 .124-.023.219-.069.284s-.111.097-.196.097c-.084 0-.15-.033-.197-.099s-.071-.16-.071-.281v-.064c.001-.119.025-.211.071-.275s.112-.098.195-.098c.085 0 .15.033.196.098z"/></symbol><symbol id="group1" viewBox="0 0 32 32"><path  d="M15.811 8.45h-.043a4.365 4.365 0 0 0-.198-.007h-.143a6.838 6.838 0 0 0-.407.01 8.875 8.875 0 0 0-3.299.842l-.136.065v6.946l.317-.108c.279-.096.575-.182.883-.262.83-.213 1.683-.326 2.54-.337v.913a7.273 7.273 0 0 0-.334.01h-.026c-.659.036-1.314.137-1.954.3a9.937 9.937 0 0 0-2.328.907V8.82a9.301 9.301 0 0 1 2.442-.993 9.359 9.359 0 0 1 2.302-.297h.134c.16.004.317.011.464.022.387.027.771.088 1.147.183v.898a7.181 7.181 0 0 0-1.111-.168l-.023-.002a2.571 2.571 0 0 0-.227-.013zm1.581.918c.199.015.406.022.614.022a9.882 9.882 0 0 0 2.42-.31 9.994 9.994 0 0 0 2.327-.908v8.75a9.356 9.356 0 0 1-2.443.993 9.406 9.406 0 0 1-2.302.296 6.99 6.99 0 0 1-1.746-.206V9.198c.135.031.274.06.415.084.232.039.476.068.714.085zm4.453.068-.317.107c-.292.098-.587.186-.883.264-.862.222-1.748.335-2.637.338a8.89 8.89 0 0 1-.582-.018l-.253-.017v7.146l.217.019c.202.018.41.026.619.026a8.417 8.417 0 0 0 2.077-.269 8.68 8.68 0 0 0 1.623-.583l.136-.065V9.435zM11.301 20.773a.474.474 0 0 0-.353-.143.528.528 0 0 0-.204.038c-.059.024-.113.059-.159.105s-.08.1-.102.16a.534.534 0 0 0-.037.197v1.19a.492.492 0 0 0 .166.404c.048.04.103.069.164.085a.671.671 0 0 0 .178.025.51.51 0 0 0 .455-.311.496.496 0 0 0 .038-.19V22.2h-.311v.106a.275.275 0 0 1-.018.106.203.203 0 0 1-.045.067.176.176 0 0 1-.065.034.206.206 0 0 1-.065.011c-.028.003-.056-.001-.082-.012s-.048-.029-.064-.052a.28.28 0 0 1-.041-.16v-1.11a.376.376 0 0 1 .038-.178c.016-.025.039-.045.066-.058s.057-.018.086-.014c.027-.001.053.005.078.016s.045.029.061.051a.256.256 0 0 1 .052.16v.103h.308v-.121a.548.548 0 0 0-.142-.376zM13.149 20.759a.541.541 0 0 0-.704 0 .478.478 0 0 0-.121.167.554.554 0 0 0-.045.231v1.142c-.002.08.013.16.045.234a.462.462 0 0 0 .121.16.505.505 0 0 0 .35.135.523.523 0 0 0 .354-.135.476.476 0 0 0 .117-.16.552.552 0 0 0 .045-.234v-1.142a.53.53 0 0 0-.162-.398zm-.145 1.539a.201.201 0 0 1-.062.166.23.23 0 0 1-.292 0 .206.206 0 0 1-.062-.166v-1.142a.201.201 0 0 1 .062-.166.23.23 0 0 1 .292 0 .206.206 0 0 1 .062.166v1.142zM15.577 22.808v-2.161h-.299l-.393 1.144h-.006l-.396-1.144h-.296v2.161h.309v-1.315h.006l.302.929h.154l.305-.929h.006v1.315h.309zM17.331 20.798a.435.435 0 0 0-.175-.118.708.708 0 0 0-.224-.034h-.459v2.161h.308v-.844h.159a.57.57 0 0 0 .278-.059.505.505 0 0 0 .24-.353c.012-.081.018-.163.017-.246a1.233 1.233 0 0 0-.03-.309.476.476 0 0 0-.113-.199zm-.159.659a.263.263 0 0 1-.029.113.176.176 0 0 1-.079.076.315.315 0 0 1-.145.027h-.14v-.735h.159a.303.303 0 0 1 .139.027.17.17 0 0 1 .072.08.313.313 0 0 1 .027.12v.144c0 .051.003.102 0 .148h-.003zM18.79 20.646h-.252l-.476 2.161h.308l.09-.464h.42l.09.464h.308l-.488-2.161zm-.285 1.403.152-.783h.006l.151.783h-.308zM20.779 21.948h-.006l-.465-1.302h-.296v2.161h.308v-1.3h.006l.471 1.3h.29v-2.161h-.308v1.302zM22.661 20.646l-.248.859h-.006l-.248-.859h-.326l.423 1.248v.913h.308v-.913l.423-1.248h-.326zM10.442 23.418h.148v.416h.101v-.416h.148v-.085h-.397v.085zM11.69 23.333l-.194.502h.107l.041-.114h.2l.043.114h.11l-.199-.502h-.107zm-.016.303.068-.186.068.186h-.136zM12.923 23.649h.116v.065a.192.192 0 0 1-.119.042c-.02.001-.04-.003-.059-.011s-.035-.021-.047-.037a.203.203 0 0 1-.037-.131c0-.112.048-.168.144-.168.025-.003.051.004.071.019s.036.036.042.061l.099-.019c-.021-.098-.092-.148-.213-.148a.246.246 0 0 0-.175.065.243.243 0 0 0-.072.193.272.272 0 0 0 .064.188.242.242 0 0 0 .19.074.3.3 0 0 0 .213-.08v-.198h-.217v.085zM14.182 23.333h-.102v.502h.352v-.085h-.25v-.416zM15.247 23.333h-.102v.502h.102v-.502zM16.289 23.668l-.206-.335h-.098v.502h.094v-.328l.202.328h.101v-.502h-.093v.335zM17.23 23.613h.25v-.085h-.25v-.11h.269v-.085h-.371v.502h.381v-.085h-.279v-.136zM19.512 23.53h-.198v-.198h-.101v.502h.101v-.219h.198v.219h.101v-.502h-.101v.198zM20.459 23.613h.251v-.085h-.251v-.11h.27v-.085h-.371v.502h.38v-.085h-.279v-.136zM21.743 23.613c.087-.014.132-.06.132-.14.003-.021-.001-.043-.009-.063s-.022-.037-.04-.049a.286.286 0 0 0-.147-.03h-.213v.502h.101v-.21h.02a.153.153 0 0 1 .063.011.106.106 0 0 1 .036.037l.11.16h.121l-.061-.098a.345.345 0 0 0-.111-.12zm-.101-.069h-.075v-.126h.079a.251.251 0 0 1 .102.012c.007.006.013.015.017.024s.006.019.005.029a.067.067 0 0 1-.027.05.294.294 0 0 1-.102.012zM22.712 23.613h.25v-.085h-.25v-.11h.27v-.085h-.371v.502h.381v-.085h-.279v-.136z"/></symbol><symbol id="group2" viewBox="0 0 32 32"><path  d="M11.593 21.934c.005 0 .01.001.014.003s.009.004.012.007l.068.065a.576.576 0 0 1-.191.123.747.747 0 0 1-.27.044.702.702 0 0 1-.254-.041.544.544 0 0 1-.191-.116.51.51 0 0 1-.124-.18.59.59 0 0 1-.043-.23.545.545 0 0 1 .381-.528.794.794 0 0 1 .262-.041.63.63 0 0 1 .425.142l-.057.069-.014.013c-.007.004-.015.006-.023.005s-.017-.003-.025-.007l-.03-.018-.042-.024a.484.484 0 0 0-.235-.048.545.545 0 0 0-.188.031.405.405 0 0 0-.243.225.462.462 0 0 0-.035.183.48.48 0 0 0 .035.186.38.38 0 0 0 .235.223.49.49 0 0 0 .174.029.877.877 0 0 0 .103-.006.424.424 0 0 0 .224-.095.06.06 0 0 1 .032-.012zM13.549 21.609a.552.552 0 0 1-.046.229c-.028.066-.071.127-.128.178s-.125.091-.2.117a.824.824 0 0 1-.515 0 .538.538 0 0 1-.328-.297.599.599 0 0 1 0-.459.538.538 0 0 1 .129-.18.62.62 0 0 1 .199-.113.81.81 0 0 1 .515 0c.075.027.143.066.2.117s.099.111.128.177a.576.576 0 0 1 .046.23zm-.178 0a.506.506 0 0 0-.032-.184.377.377 0 0 0-.234-.225.598.598 0 0 0-.374 0 .393.393 0 0 0-.143.087.365.365 0 0 0-.091.138.541.541 0 0 0 0 .368.377.377 0 0 0 .234.224.612.612 0 0 0 .374 0 .414.414 0 0 0 .143-.086.39.39 0 0 0 .091-.138.467.467 0 0 0 .032-.184zM14.884 21.802l.018.041.019-.041a.397.397 0 0 1 .022-.04l.433-.684c.008-.012.016-.019.025-.021a.147.147 0 0 1 .036-.004h.128v1.112h-.152v-.891l-.435.693c-.006.01-.014.019-.025.025s-.024.009-.037.009h-.025c-.013 0-.026-.003-.037-.009s-.02-.015-.025-.025l-.448-.698v.893h-.147v-1.11h.128a.11.11 0 0 1 .036.004.05.05 0 0 1 .024.021l.442.684a.224.224 0 0 1 .022.04zM16.513 21.747v.417h-.169v-1.111h.378a.833.833 0 0 1 .211.024.424.424 0 0 1 .149.069.28.28 0 0 1 .085.109c.02.045.03.093.029.142a.304.304 0 0 1-.122.253.457.457 0 0 1-.15.074.737.737 0 0 1-.204.026l-.205-.003zm0-.12h.205a.44.44 0 0 0 .131-.017.293.293 0 0 0 .095-.048.208.208 0 0 0 .078-.167c.002-.031-.004-.062-.017-.09s-.033-.055-.059-.076a.368.368 0 0 0-.228-.06h-.205v.458zM18.79 22.165h-.134a.066.066 0 0 1-.037-.01.068.068 0 0 1-.022-.026l-.115-.269h-.579l-.119.269a.063.063 0 0 1-.059.036h-.134l.508-1.112h.176l.515 1.112zm-.838-.413h.478l-.202-.453a.773.773 0 0 1-.038-.105l-.019.058a.455.455 0 0 1-.019.047l-.2.452zM19.522 21.058c.01.005.019.012.025.02l.741.838v-.864h.152v1.112h-.085c-.012 0-.024-.002-.035-.007s-.02-.012-.027-.021l-.74-.838v.865h-.152v-1.112h.09a.1.1 0 0 1 .03.005zM21.689 21.722v.442h-.169v-.442l-.468-.67h.152a.056.056 0 0 1 .036.01.109.109 0 0 1 .023.025l.293.432a.405.405 0 0 1 .051.099l.022-.048a.44.44 0 0 1 .029-.051l.289-.435a.1.1 0 0 1 .022-.024.052.052 0 0 1 .036-.011h.153l-.469.673zM14.8 19.186c.074.008.148.015.224.021 1.143-.444 2.11-1.171 2.78-2.09s1.013-1.989.987-3.077l-1.26-1.094c.256 1.158.136 2.355-.346 3.457s-1.308 2.066-2.385 2.784z"/><path  d="m14.351 19.135.034.006c1.151-.715 2.028-1.714 2.519-2.867s.572-2.407.233-3.601l-1.794-1.559c.726 1.281 1.018 2.715.842 4.135s-.811 2.767-1.833 3.885zM20.435 15.325c-.305 1.195-1.045 2.273-2.111 3.073a6.704 6.704 0 0 1-1.003.626c.868-.222 1.666-.613 2.332-1.145s1.183-1.189 1.51-1.922l-.728-.631z"/><path  d="m20.15 15.149-1.036-.9c-.02 1.026-.356 2.029-.972 2.904s-1.492 1.591-2.535 2.073h.005c.232 0 .465-.012.695-.036.975-.346 1.836-.896 2.506-1.601s1.13-1.544 1.337-2.44zM14.501 10.458l-1.236-1.075c-1.105.371-2.055 1.023-2.726 1.871s-1.032 1.852-1.036 2.881c.004 1.137.445 2.241 1.252 3.136s1.935 1.531 3.205 1.806c1.133-1.2 1.797-2.683 1.894-4.232s-.377-3.087-1.353-4.386zM23.005 14.983c-.004-1.349-.623-2.642-1.721-3.596s-2.586-1.492-4.139-1.496a6.563 6.563 0 0 0-2.098.339l7.567 6.574a4.45 4.45 0 0 0 .391-1.822z"/></symbol><symbol id="group3" viewBox="0 0 32 32"><path  d="M7.667 13.236h-.001c-.745 0-1.349.537-1.349 1.199v.001c0 .662.604 1.199 1.349 1.199h.001c.745 0 1.349-.537 1.349-1.199v-.001c0-.662-.604-1.199-1.349-1.199zM17.624 12.853c-.002-.92-.414-1.801-1.146-2.451s-1.723-1.017-2.758-1.019c-1.035.002-2.027.368-2.759 1.018s-1.144 1.532-1.146 2.452v5.071s7.808-.773 7.809-5.07v-.001zM3.583 19.588c.002.64.289 1.253.798 1.706s1.199.708 1.919.709c.72-.002 1.41-.257 1.919-.709s.796-1.065.798-1.705V16.06s-5.433.538-5.433 3.528zm2.716.632c-.141 0-.278-.037-.395-.107s-.208-.168-.262-.284c-.054-.116-.068-.243-.04-.365s.095-.235.195-.324c.099-.088.226-.149.364-.173s.281-.012.411.036c.13.048.241.129.319.233a.584.584 0 0 1-.087.8c-.066.059-.145.106-.231.138s-.179.048-.273.048v-.002zM11.79 19.872h-.524v.542h-.273v-1.325h.863v.221h-.59v.342h.524v.22zm1.313-.091c0 .13-.023.245-.069.343a.526.526 0 0 1-.493.308.525.525 0 0 1-.494-.305.79.79 0 0 1-.072-.339v-.066c0-.13.023-.245.07-.344a.524.524 0 0 1 .494-.308c.111 0 .208.027.294.08.086.053.153.129.199.228s.071.213.071.343v.059zm-.277-.06c0-.139-.025-.245-.075-.317s-.121-.108-.213-.108-.162.036-.212.107-.075.175-.076.313v.065c0 .135.025.24.075.315s.121.112.215.112c.092 0 .162-.036.211-.107s.074-.177.075-.315v-.065zm1.162.345c0-.052-.018-.091-.055-.118s-.102-.057-.197-.087a1.38 1.38 0 0 1-.225-.091c-.15-.081-.226-.191-.226-.329 0-.072.02-.135.06-.191s.099-.1.174-.132c.076-.032.161-.047.255-.047s.179.017.253.052a.382.382 0 0 1 .234.358h-.273c0-.061-.019-.108-.057-.141s-.092-.051-.161-.051c-.067 0-.119.014-.156.043s-.056.065-.056.111c0 .043.022.079.065.108s.108.056.192.082c.155.047.268.105.339.174s.107.155.107.259c0 .115-.043.205-.13.27s-.204.097-.35.097c-.102 0-.195-.019-.278-.056s-.148-.089-.192-.154a.393.393 0 0 1-.066-.226h.274c0 .146.087.219.262.219.065 0 .116-.013.152-.039s.055-.064.055-.111zm1.457-.756h-.406v1.104h-.273V19.31h-.4v-.221h1.079v.221zm.954.529h-.524v.355h.615v.219h-.888v-1.325h.887v.221h-.613v.316h.524v.214zm.742.09h-.218v.485h-.273v-1.325h.492c.157 0 .277.035.362.105s.127.168.127.296c0 .09-.02.166-.059.227s-.098.108-.177.144l.287.542v.013h-.293l-.248-.485zm-.217-.222h.22c.069 0 .122-.017.159-.052s.056-.083.056-.145c0-.063-.018-.112-.054-.147s-.09-.054-.163-.054h-.219v.398zm1.654.24v.467h-.273v-1.325h.517c.1 0 .187.018.262.055a.409.409 0 0 1 .236.384c0 .13-.045.232-.134.308s-.211.112-.369.112h-.239zm0-.221h.244c.072 0 .127-.017.165-.051s.057-.083.057-.146c0-.065-.019-.117-.057-.157s-.091-.061-.158-.062h-.25v.416zm1.728.113h-.524v.355h.615v.219h-.888v-1.325h.887v.221h-.613v.316h.524v.214zm1.267-.529h-.406v1.104h-.273V19.31h-.4v-.221h1.079v.221zm.954.529h-.524v.355h.615v.219h-.888v-1.325h.887v.221h-.613v.316h.524v.214zm.742.09h-.218v.485h-.273v-1.325h.492c.157 0 .277.035.362.105s.127.168.127.296c0 .09-.02.166-.059.227s-.098.108-.177.144l.287.542v.013h-.293l-.248-.485zm-.218-.222h.22c.069 0 .122-.017.159-.052s.056-.083.056-.145c0-.063-.018-.112-.054-.147s-.089-.054-.163-.054h-.219v.398zm1.605.359c0-.052-.018-.091-.055-.118s-.102-.057-.197-.087a1.38 1.38 0 0 1-.225-.091c-.151-.081-.226-.191-.226-.329 0-.072.02-.135.06-.191s.099-.1.174-.132c.076-.032.161-.047.255-.047s.179.017.253.052a.382.382 0 0 1 .234.358h-.273c0-.061-.019-.108-.057-.141s-.092-.051-.161-.051c-.067 0-.119.014-.156.043s-.056.065-.056.111c0 .043.022.079.065.108s.108.056.192.082c.155.047.269.105.34.174s.106.155.106.259c0 .115-.043.205-.13.27s-.204.097-.35.097c-.102 0-.195-.019-.279-.056s-.148-.089-.192-.154a.393.393 0 0 1-.066-.226h.274c0 .146.087.219.262.219.065 0 .116-.013.152-.039s.055-.064.055-.111z"/></symbol><symbol id="group4" viewBox="0 0 32 32"><path  d="M8.443 20.623a.453.453 0 0 1 .115.306c.004.073-.01.145-.041.212s-.078.127-.137.175a.82.82 0 0 1-.518.141h-.911v-1.942h.892a.811.811 0 0 1 .494.129c.058.044.103.1.133.163s.044.132.04.2a.428.428 0 0 1-.104.297.493.493 0 0 1-.272.152c.121.02.23.079.308.166zm-1.068-.293h.381a.379.379 0 0 0 .242-.065.226.226 0 0 0 .082-.19c.003-.035-.003-.07-.017-.103s-.036-.062-.064-.087a.391.391 0 0 0-.25-.065h-.375v.51zm.661.745a.231.231 0 0 0 .09-.197c.002-.037-.005-.075-.021-.109s-.04-.065-.072-.09a.413.413 0 0 0-.259-.07h-.4v.534h.405a.432.432 0 0 0 .256-.067zM10.267 21.458l-.496-.759h-.187v.759h-.427v-1.942h.808a.848.848 0 0 1 .563.165.583.583 0 0 1 .06.804.672.672 0 0 1-.386.197l.529.776h-.464zm-.683-1.024h.349c.242 0 .364-.098.364-.294.002-.04-.004-.08-.02-.118s-.039-.072-.07-.101a.404.404 0 0 0-.275-.079h-.353l.004.591zM12.601 21.067h-.851l-.15.391h-.448l.781-1.921h.484l.778 1.921h-.448l-.147-.391zm-.114-.294-.311-.82-.311.82h.622zM15.523 21.458h-.424l-.95-1.321v1.321h-.423v-1.942h.423l.95 1.328v-1.328h.424v1.942zM17.941 20.993a.887.887 0 0 1-.383.343 1.347 1.347 0 0 1-.596.122h-.754v-1.942h.754c.206-.005.411.036.596.12a.867.867 0 0 1 .383.339 1.046 1.046 0 0 1 0 1.02zm-.485-.047c.121-.129.187-.294.187-.464s-.067-.334-.187-.464a.78.78 0 0 0-.531-.165h-.294v1.257h.294a.782.782 0 0 0 .531-.165zM12.866 8.711s5.471 1.891 5.355 4.628v4.629s-5.467-1.892-5.353-4.629l-.002-4.628zM23.095 16.884a7.939 7.939 0 0 1 3.476-1.173v-1.449c-1.438.507-2.657 1.427-3.476 2.622z"/><path  d="M22.474 17.321c.846-1.559 2.312-2.762 4.097-3.362V9.784s-7.791 2.694-7.627 6.591v6.59s.347-.12.893-.346c0-.211 0-.423.025-.637.161-1.809 1.101-3.486 2.612-4.661z"/><path   d="M21.733 19.769c.041-.457.132-.909.273-1.349-.941 1.015-1.511 2.274-1.629 3.601-.011.125-.018.25-.021.38.442-.195.958-.437 1.499-.723a6.245 6.245 0 0 1-.121-1.908zM22.043 19.793a6.005 6.005 0 0 0 .096 1.728c2.129-1.166 4.521-2.968 4.428-5.146v-.19c-1.521.156-2.944.765-4.05 1.733a6.053 6.053 0 0 0-.475 1.875z"/></symbol><symbol id="group5" viewBox="0 0 32 32"><path  d="M16.84 15.195a.918.918 0 0 1-.188-.618v-.896c0-.275.062-.483.187-.626s.338-.214.642-.213c.285 0 .487.061.607.182a.738.738 0 0 1 .179.536v.211h-.51v-.213c.002-.07-.003-.14-.015-.209a.2.2 0 0 0-.073-.124.288.288 0 0 0-.185-.048.31.31 0 0 0-.194.051.237.237 0 0 0-.084.137 1.027 1.027 0 0 0-.02.221v1.087a.553.553 0 0 0 .065.305c.025.032.061.058.102.074s.087.022.132.017a.275.275 0 0 0 .18-.049.219.219 0 0 0 .076-.132c.012-.072.017-.145.016-.218v-.221h.51v.201a.825.825 0 0 1-.176.563c-.117.133-.317.2-.61.2s-.515-.071-.641-.219zM18.963 15.204c-.129-.139-.193-.343-.193-.611v-.942c0-.266.064-.467.193-.604s.344-.205.646-.204c.3 0 .514.068.643.204s.194.338.194.604v.942c0 .266-.065.47-.196.611s-.344.211-.641.211c-.297 0-.516-.071-.646-.21zm.883-.226a.526.526 0 0 0 .061-.279v-1.154a.513.513 0 0 0-.06-.273c-.026-.033-.062-.059-.104-.075s-.089-.022-.134-.016c-.046-.005-.092 0-.135.016s-.079.042-.105.075a.505.505 0 0 0-.061.273v1.159a.526.526 0 0 0 .061.279c.03.029.066.053.108.069a.366.366 0 0 0 .262 0 .328.328 0 0 0 .108-.069v-.005zM21.059 12.869h.549l.413 1.738.422-1.738h.534l.054 2.509h-.395l-.042-1.744-.407 1.744h-.317l-.422-1.75-.039 1.75h-.399l.05-2.509zM23.646 12.869h.855c.493 0 .739.237.739.713 0 .455-.259.682-.778.681h-.291v1.115h-.528l.003-2.509zm.73 1.073a.405.405 0 0 0 .29-.079.405.405 0 0 0 .076-.283.798.798 0 0 0-.025-.228.198.198 0 0 0-.106-.12.55.55 0 0 0-.235-.04h-.205v.75h.205zM26 12.869h.567l.582 2.509h-.492l-.115-.579h-.506l-.118.579h-.499l.582-2.509zm.485 1.64-.197-1.053-.197 1.053h.395zM27.618 12.869h.369l.707 1.431v-1.431h.438v2.509h-.351l-.711-1.494v1.494h-.453l.001-2.509zM30.159 14.422l-.588-1.549h.495l.359.995.337-.995h.484l-.58 1.549v.957h-.507v-.957zM17.655 16.476v.131h-.431v1.02h-.18v-1.02h-.433v-.131h1.044zM19.005 17.627h-.139a.06.06 0 0 1-.039-.011.057.057 0 0 1-.023-.026l-.125-.273h-.597l-.125.273a.084.084 0 0 1-.019.031.06.06 0 0 1-.039.011h-.139l.528-1.151h.184l.534 1.146zm-.874-.428h.498l-.211-.468a.736.736 0 0 1-.039-.108 4.63 4.63 0 0 1-.02.061l-.019.048-.209.467zM19.915 17.514a.566.566 0 0 0 .183-.014.657.657 0 0 0 .076-.021l.071-.028v-.259h-.211c-.005 0-.01 0-.015-.002l-.013-.007-.008-.009a.024.024 0 0 1-.003-.012v-.088h.41v.441a.758.758 0 0 1-.223.094.96.96 0 0 1-.286.031.797.797 0 0 1-.266-.043.637.637 0 0 1-.211-.12.544.544 0 0 1-.185-.421.53.53 0 0 1 .183-.423.625.625 0 0 1 .211-.119.895.895 0 0 1 .283-.043c.049 0 .098.003.147.01a.768.768 0 0 1 .126.029.768.768 0 0 1 .198.106l-.051.071c-.004.006-.01.012-.017.016s-.016.006-.024.006a.063.063 0 0 1-.033-.009.527.527 0 0 1-.052-.027.412.412 0 0 0-.071-.031.768.768 0 0 0-.097-.026.854.854 0 0 0-.134-.01.61.61 0 0 0-.204.032.43.43 0 0 0-.155.091.394.394 0 0 0-.098.143.54.54 0 0 0 0 .384.434.434 0 0 0 .26.236c.067.02.138.028.209.023zM21.597 17.495h.576v.131h-.753v-1.151h.18l-.004 1.02zM22.773 17.627h-.18v-1.151h.18v1.151zM23.444 16.481a.07.07 0 0 1 .027.021l.771.867a.28.28 0 0 1 0-.041v-.857h.157v1.155h-.091a.086.086 0 0 1-.039-.006.106.106 0 0 1-.029-.022l-.77-.867V17.626h-.151v-1.151h.094c.01 0 .02.002.03.005zM25.729 16.476v.127h-.64v.38h.518v.122h-.518v.393h.64v.127h-.825v-1.148h.825zM6.817 9.369l8.014 1.965v6.884l-8.014-1.964V9.369zm-.514-.587v7.806l9.041 2.217V11L6.303 8.782z"/><path  d="M11.148 22.429 2.106 20.21v-7.805l9.042 2.218v7.806zM6.453 9.28l7.91 1.94-3.364 2.905-7.911-1.941L6.453 9.28zm-.15-.498-4.196 3.623 9.042 2.218L15.344 11 6.303 8.782zM11.657 21.99l3.687-3.184-3.687-.905v4.088z"/></symbol><symbol id="icon-check" viewBox="0 0 32 32"><path fill="#fff" style="fill:var(--color5, #fff);stroke:var(--color5, #fff)" stroke="#fff" stroke-width=".492" d="m4.817 15.39-.17-.162-.17.16-2.373 2.25.187.18 8.775 8.369.17-.162L29.894 8.226l-.187-.177-2.341-2.233-.17.162-16.13 15.375-6.25-5.962z"/></symbol><symbol id="icon-checkbox" viewBox="0 0 32 32"><path d="M28.444 4.334v23.332H3.556V4.334h24.888zm0-3.334H3.556C1.6 1 0 2.5 0 4.334v23.332C0 29.5 1.6 31 3.556 31h24.888C30.4 31 32 29.5 32 27.666V4.334C32 2.5 30.4 1 28.444 1z"/></symbol><symbol id="icon-send" viewBox="0 0 32 32"><path  d="M32 0 0 18l10.227 3.787L26 7 14.003 23.187l.009.003-.012-.003V32l5.735-6.691L27.002 28l4.999-28z"/></symbol><symbol id="instagram" viewBox="0 0 32 32"><path  d="M31.968 9.408c-.074-1.701-.349-2.869-.742-3.882a7.839 7.839 0 0 0-1.85-2.837l-.001-.001A7.906 7.906 0 0 0 26.597.861l-.054-.018C25.524.449 24.362.176 22.661.101 20.949.019 20.405 0 16.059 0c-4.344 0-4.888.019-6.595.094-1.699.074-2.869.349-3.88.742a7.847 7.847 0 0 0-2.839 1.85l-.001.001A7.9 7.9 0 0 0 .919 5.465l-.018.054C.506 6.538.232 7.7.157 9.401c-.082 1.712-.101 2.256-.101 6.602 0 4.344.019 4.888.094 6.595.075 1.701.35 2.869.744 3.882a7.915 7.915 0 0 0 1.849 2.837l.001.001c.8.813 1.77 1.443 2.832 1.843 1.019.395 2.182.67 3.882.744 1.707.075 2.251.094 6.595.094 4.346 0 4.89-.019 6.595-.094 1.701-.074 2.869-.349 3.882-.742a8.237 8.237 0 0 0 4.664-4.628l.019-.055c.394-1.019.669-2.182.744-3.882.075-1.707.093-2.251.093-6.595s-.006-4.888-.08-6.595zm-2.88 13.066c-.07 1.563-.333 2.406-.55 2.97a5.341 5.341 0 0 1-3.004 3.024l-.036.012c-.56.219-1.411.482-2.968.55-1.688.075-2.194.094-6.464.094-4.269 0-4.782-.019-6.464-.094-1.563-.069-2.406-.331-2.97-.55a4.953 4.953 0 0 1-1.836-1.192l-.001-.001a4.978 4.978 0 0 1-1.184-1.803L3.6 25.45c-.218-.563-.48-1.413-.549-2.97-.075-1.688-.094-2.195-.094-6.464 0-4.27.019-4.784.094-6.464.069-1.563.331-2.406.549-2.97a4.897 4.897 0 0 1 1.198-1.837l.002-.002a4.972 4.972 0 0 1 1.806-1.182l.034-.011c.56-.219 1.411-.48 2.968-.55 1.688-.074 2.195-.093 6.464-.093 4.275 0 4.782.019 6.464.093 1.563.069 2.406.331 2.97.55a4.91 4.91 0 0 1 1.837 1.194c.531.52.938 1.144 1.195 1.84.218.56.48 1.411.549 2.968.075 1.688.094 2.194.094 6.464 0 4.269-.019 4.768-.094 6.458z"/><path  d="M16.059 7.782a8.223 8.223 0 0 0-8.219 8.221v.002a8.222 8.222 0 1 0 16.444 0 8.222 8.222 0 0 0-8.222-8.222h-.002zm0 13.552a5.333 5.333 0 0 1 .001-10.666h.001a5.334 5.334 0 1 1 0 10.668zM26.525 7.458a1.92 1.92 0 0 1-3.84 0 1.92 1.92 0 0 1 3.84 0z"/></symbol><symbol id="linkedin" viewBox="0 0 32 32"><path  d="M31.992 32H32V20.262c0-5.741-1.237-10.163-7.947-10.163-3.227 0-5.392 1.77-6.277 3.45h-.093v-2.914h-6.365v21.363h6.627V21.42c0-2.786.528-5.48 3.978-5.48 3.398 0 3.448 3.179 3.448 5.658V32h6.621zM.528 10.635h6.635V32H.528V10.635zM3.843 0A3.843 3.843 0 0 0 0 3.843c0 2.12 1.722 3.878 3.843 3.878 2.12 0 3.842-1.757 3.842-3.878S5.965.002 3.844 0z"/></symbol><symbol id="person-modal" viewBox="0 0 32 32"><path d="M16 16a5.333 5.333 0 1 0 0-10.666A5.333 5.333 0 1 0 16 16zm0 2.667c-3.561 0-10.667 1.787-10.667 5.333v1.333c0 .732.599 1.333 1.333 1.333h18.667c.732 0 1.333-.601 1.333-1.333V24c0-3.547-7.108-5.333-10.667-5.333z"/></symbol><symbol id="phone-modal" viewBox="0 0 32 32"><path d="m24.882 19.774-3.268-.373a2.552 2.552 0 0 0-2.11.732l-2.368 2.368c-3.669-1.894-6.585-4.81-8.427-8.372l-.051-.108 2.382-2.377a2.552 2.552 0 0 0 .731-2.122l.001.012-.373-3.243a2.578 2.578 0 0 0-2.557-2.276H6.613c-1.454 0-2.663 1.209-2.574 2.661.683 10.987 9.47 19.762 20.444 20.444 1.452.089 2.663-1.12 2.663-2.574v-2.238a2.549 2.549 0 0 0-2.253-2.532l-.012-.001z"/></symbol><symbol id="smartphone" viewBox="0 0 32 32"><path  d="M23 0H9C7.346 0 6 1.346 6 3v26c0 1.654 1.346 3 3 3h14c1.654 0 3-1.346 3-3V3c0-1.654-1.346-3-3-3zM9 2h14a1 1 0 0 1 1 1v21H8V3a1 1 0 0 1 1-1zm14 28H9a1 1 0 0 1-1-1v-3h16v3a1 1 0 0 1-1 1z"/><path  d="M10.708 27.478a.889.889 0 0 1 .001 1.319l-.001.001a1.048 1.048 0 0 1-1.417 0l.001.001a.889.889 0 0 1-.001-1.319l.001-.001a1.048 1.048 0 0 1 1.417 0l-.001-.001z"/></symbol><symbol id="twitter" viewBox="0 0 32 32"><path  d="M32 6.078c-1.19.522-2.458.868-3.78 1.036a6.523 6.523 0 0 0 2.886-3.626 13.11 13.11 0 0 1-4.16 1.588A6.574 6.574 0 0 0 22.154 3c-3.632 0-6.556 2.948-6.556 6.562 0 .52.044 1.02.152 1.496-5.454-.266-10.28-2.88-13.522-6.862a6.605 6.605 0 0 0-.898 3.316 6.57 6.57 0 0 0 2.914 5.452 6.479 6.479 0 0 1-2.964-.808v.072c0 3.188 2.274 5.836 5.256 6.446a6.548 6.548 0 0 1-1.72.216 5.8 5.8 0 0 1-1.242-.112c.85 2.598 3.262 4.508 6.13 4.57a13.182 13.182 0 0 1-8.134 2.798c-.538 0-1.054-.024-1.57-.09A18.469 18.469 0 0 0 10.064 29c12.072 0 18.672-10 18.672-18.668 0-.29-.01-.57-.024-.848A13.087 13.087 0 0 0 32 6.078z"/></symbol><symbol id="icon-smartphone" viewBox="0 0 20 32"><path  d="M17 0h-14c-1.654 0-3 1.346-3 3v26c0 1.654 1.346 3 3 3h14c1.654 0 3-1.346 3-3v-26c0-1.654-1.346-3-3-3zM3 2h14c0.552 0 1 0.448 1 1v0 21h-16v-21c0-0.552 0.448-1 1-1v0zM17 30h-14c-0.552 0-1-0.448-1-1v0-3h16v3c0 0.552-0.448 1-1 1v0z"></path><path  d="M4.708 27.478c0.18 0.163 0.293 0.399 0.293 0.66s-0.113 0.497-0.292 0.659l-0.001 0.001c-0.186 0.17-0.435 0.275-0.708 0.275s-0.522-0.104-0.709-0.275l0.001 0.001c-0.18-0.163-0.293-0.399-0.293-0.66s0.113-0.497 0.292-0.659l0.001-0.001c0.186-0.17 0.435-0.275 0.708-0.275s0.522 0.104 0.709 0.275l-0.001-0.001z"></path></symbol></defs></svg>


